<svg xmlns="http://www.w3.org/2000/svg" xmlns:xlink="http://www.w3.org/1999/xlink" width="118" height="4105" viewBox="0 0 118 4105"><svg width="34" height="34" viewBox="-8 -8 34 34" id="account" y="0"><path fill="none" d="M-.001 0h18v18h-18V0z"></path><path fill="#1d2024" fill-rule="evenodd" d="M16.999 17a1 1 0 1 1-2 0 6 6 0 1 0-12.001 0 1 1 0 1 1-2.001 0A7.992 7.992 0 0 1 5.69 9.723C4.663 8.807 3.998 7.486 3.998 6a5 5 0 1 1 9.999 0c0 1.486-.66 2.807-1.69 3.723A7.995 7.995 0 0 1 16.999 17zM8.998 3a3 3 0 1 0 0 6 3 3 0 0 0 0-6z"></path></svg><svg width="78" height="78" viewBox="-8 -8 78 78" id="added" y="34"><path fill="none" d="M0 0h62v62H0V0z"></path><path fill="#1D2024" fill-rule="evenodd" d="M10 6h42a4 4 0 0 1 4 4v42a4 4 0 0 1-4 4H10a4 4 0 0 1-4-4V10a4 4 0 0 1 4-4z"></path><path fill="#FFF" fill-rule="evenodd" d="M41.001 29L39 30l-2.001 10H25.003l-2.002-10-2.003-1v-1h9.699l1.373-5.123a.997.997 0 0 1 1.221-.707.997.997 0 0 1 .71 1.224L32.767 28h8.234v1zm-8.77 1l-.301 1.123a1 1 0 1 1-1.932-.519L30.16 30h-5.157L27 38h8l1.999-8h-4.768z" opacity=".8"></path><path fill="#7AB800" fill-rule="evenodd" d="M49 36c7.18 0 13 5.82 13 13s-5.82 13-13 13-13-5.82-13-13 5.82-13 13-13z"></path><path fill="#FFF" fill-rule="evenodd" d="M55.58 47.253l-6.889 6.326a1.466 1.466 0 0 1-.552.305c-.535.219-1.182.136-1.623-.267l-4.11-3.779a1.255 1.255 0 0 1 0-1.888 1.543 1.543 0 0 1 2.056 0l3.137 2.88 5.936-5.455c.563-.517 1.477-.517 2.045 0 .565.52.565 1.359 0 1.878z"></path></svg><svg id="amex" viewBox="-8 -8 46 35" width="46" height="35" y="112"><style>.abst0{fill:#96a0aa}</style><path d="M19.6 7.9V9h2.9c.2 0 .3.1.3.3v.5c0 .2-.1.3-.3.3h-2.9v1.1h3.3l1.6-1.8L23.1 8l-3.5-.1zM3.9 10h1.7l-.8-2-.9 2z" class="abst0"></path><path d="M28 0H2C.9 0 0 .9 0 2v15c0 1.1.9 2 2 2h26c1.1 0 2-.9 2-2V2c0-1.1-.9-2-2-2zM8.2 12.4c-.1.1-.2.1-.3.1H7c-.1 0-.2-.1-.3-.2l-.5-1.1H3.4l-.5 1.1c0 .1-.2.2-.3.2h-.8c-.2 0-.3-.1-.3-.3v-.1l2.3-5.2c0-.1.2-.2.3-.2h1.5c.1 0 .2.1.3.2l2.3 5.2v.3zm8.1-.2c0 .2-.1.3-.3.3h-.8c-.2 0-.3-.1-.3-.3V8.3L13 12.4c-.1.1-.2.2-.3.2h-.9c-.1 0-.2-.1-.3-.2L9.7 8.2v4c0 .2-.1.3-.3.3h-.8c-.2 0-.3-.1-.3-.3V7c0-.2.1-.3.3-.3h1.7c.1 0 .2.1.3.2l1.7 3.7L14 6.9c0-.1.2-.2.3-.2H16c.2 0 .3.1.3.3v5.2zm12.2.2c-.1.1-.2.2-.3.2h-1c-.1 0-.2 0-.2-.1l-1.6-1.8-1.6 1.8c-.1.1-.1.1-.2.1h-5c-.2 0-.3-.1-.3-.3V7c0-.2.1-.3.3-.3h5.2c.1 0 .2 0 .2.1l1.5 1.7L27 6.8c.1-.1.2-.1.2-.1h1c.2 0 .3.1.3.3 0 .1 0 .2-.1.2l-2.1 2.3 2.1 2.5c.1.1.1.3.1.4z" class="abst0"></path></svg><svg id="amex-color" viewBox="-8 -8 48 38" enable-background="new 0 0 32 22" width="48" height="38" y="147"><style>.st2amex,.stamex{fill-rule:evenodd;clip-rule:evenodd;fill:#006fcf}.st2amex{fill:#fff}</style><path class="stamex" d="M0 0v22h32V0H0z"></path><g transform="translate(0 16.675)"><defs><filter id="Adobe_OpacityMaskFilter" filterUnits="userSpaceOnUse" x="0" y="-11.8" width="32" height="13.1"><feColorMatrix values="1 0 0 0 0 0 1 0 0 0 0 0 1 0 0 0 0 0 1 0"></feColorMatrix></filter></defs><mask maskUnits="userSpaceOnUse" x="0" y="-11.8" width="32" height="13.1" id="b_1_"><g filter="url(#Adobe_OpacityMaskFilter)"><path id="a_1_" class="st2amex" d="M0-11.8V1.3h32v-13.1H0z"></path></g></mask><path d="M28.1-6.2h2.4v-5.6h-2.6v.9l-.6-.9h-2.2v1.1l-.5-1.1h-4.2c-.1 0-.3.1-.4.1l-.6.3v-.4h-12l-.3 1-.3-1h-3v1.1l-.5-1.1H1L0-9.4v3.2h1.6l.3-.8h.6l.3.8h12.5V-7l.6.8h3.4v-.4l.6.3c.1 0 .2.1.4.1s.4.1.6.1H23l.2-.9h.6l.3.8h3.5V-7c-.1 0 .5.8.5.8zM32 1v-5.2H12.1l-.5.7-.5-.7H5.4v5.6h5.7l.5-.7.5.7h3.6V.1c.4 0 .8-.1 1.2-.2v1.4h2.5V.5l.6.8h10.8c.3 0 .6-.1.9-.1 0-.1.1-.1.3-.2z" mask="url(#b_1_)" fill-rule="evenodd" clip-rule="evenodd" fill="#fff"></path><g transform="translate(10.3 14.223)"><defs><filter id="Adobe_OpacityMaskFilter_1_" filterUnits="userSpaceOnUse" x="-4" y="-17.6" width="25.7" height="3.8"><feColorMatrix values="1 0 0 0 0 0 1 0 0 0 0 0 1 0 0 0 0 0 1 0"></feColorMatrix></filter></defs><mask maskUnits="userSpaceOnUse" x="-4" y="-17.6" width="25.7" height="3.8" id="d_1_"><g filter="url(#Adobe_OpacityMaskFilter_1_)"><path id="c_1_" class="st2amex" d="M21.7-13.8v-3.8H-4v3.8h25.7z"></path></g></mask><path d="M20.4-14.6h-1.9v.8h1.9c.8 0 1.3-.5 1.3-1.2s-.4-1.1-1.2-1.1h-.9c-.2 0-.4-.1-.4-.4 0-.2.2-.4.4-.4h1.6l.3-.8h-1.9c-.8 0-1.3.5-1.3 1.2s.5 1.1 1.2 1.1h.9c.2 0 .4.1.4.4 0 .3-.2.4-.4.4zm-3.6 0h-1.9v.8h1.9c.8 0 1.3-.5 1.3-1.2s-.4-1.1-1.2-1.1H16c-.2 0-.4-.1-.4-.4 0-.2.2-.4.4-.4h1.6l.3-.8H16c-.8 0-1.3.5-1.3 1.2s.5 1.1 1.2 1.1h.9c.2 0 .4.1.4.4 0 .3-.1.4-.4.4zm-2.4-2.2v-.8h-3v3.8h3v-.8h-2.1v-.8h2.1v-.8h-2.1v-.7h2.1zm-5.1 0c.3 0 .5.2.5.5s-.2.5-.5.5h-1v-.9l1-.1zm-1 1.6h.4l1.1 1.4h1.1l-1.3-1.4c.6-.1 1-.6 1-1.2 0-.7-.5-1.2-1.3-1.2h-2v3.8h.9c.1 0 .1-1.4.1-1.4zm-2.4-1.1c0 .3-.2.5-.5.5h-1v-.9h1.1c.3-.1.4.1.4.4zm-2.4-1.3v3.8h.9V-15h1.1c.8 0 1.3-.5 1.3-1.3 0-.7-.5-1.3-1.3-1.3h-2zm-1.3 3.8h1.1l-1.5-1.9 1.5-1.9H2.2l-.9 1.2-.9-1.2H-.7l1.5 1.9-1.5 1.9H.4l.8-1.2 1 1.2zm-3.2-3v-.8h-3v3.8h3v-.8h-2.1v-.8H-1v-.8h-2.1v-.7H-1z" mask="url(#d_1_)" fill-rule="evenodd" clip-rule="evenodd" fill="#006fcf"></path></g><path class="stamex" d="M26.8-9.3v-.3l.2.3L28.4-7h1.1v-3.8h-.9v2.5l-.2-.3-1.4-2.2h-1.1V-7h.9v-2.3zm-3.6-.1l.3-.7.3.7.3.8h-1.2l.3-.8zm1.5 2.3h1l-1.6-3.8h-1.2l-1.6 3.8h1l.3-.8h1.8l.3.8zm-4 0l.4-.8h-.3c-.6 0-1-.4-1-1.1 0-.6.3-1 1-1h1v-.8h-1.1c-1.2 0-1.8.8-1.8 1.9v.1c.1 1 .8 1.7 1.8 1.7zm-3.2 0h.9v-3.8h-.9v3.8zm-1.9-3c.3 0 .5.2.5.5s-.1.5-.5.5h-1.1v-.9h1.1v-.1zm-1 1.7h.4L16.1-7h1.1L16-8.5c.6-.1 1-.6 1-1.2 0-.7-.5-1.2-1.3-1.2h-2v3.8h.9v-1.3zM13-10.1v-.8h-3v3.8h3v-.8h-2.1v-.7H13v-.8h-2.1v-.7H13zm-7.5.4v-1l1 3.6h.8l1-3.6v3.6h.9v-3.8H7.7l-.8 2.7-.7-2.7H4.6v3.8h.9v-2.6zm-3.6.3l.3-.7.3.7.3.8H1.6l.3-.8zm1.5 2.3h1l-1.6-3.8H1.6L0-7.1h1l.3-.8h1.8l.3.8z"></path></g></svg><svg width="58" height="37" viewBox="-8 -8 58 37" id="applepay-color" y="185"><path d="M8.37 2.498c.547-.662.915-1.582.815-2.498-.789.032-1.743.527-2.304 1.186-.509.585-.949 1.522-.827 2.42.877.069 1.771-.446 2.317-1.108zm2.267 5.816c-.018-1.982 1.617-2.936 1.692-2.983-.922-1.34-2.352-1.527-2.861-1.548-1.219-.12-2.38.718-2.996.718-.619 0-1.57-.699-2.583-.677-1.328.019-2.553.772-3.236 1.96-1.377 2.4-.35 5.945.994 7.886.658.95 1.44 2.018 2.471 1.98.992-.04 1.365-.643 2.563-.643 1.197-.001 1.535.64 2.58.623 1.067-.023 1.743-.97 2.397-1.925.752-1.1 1.063-2.17 1.08-2.223-.022-.014-2.078-.798-2.101-3.168zm12.695-5.817c-.398-.383-.91-.681-1.524-.886-.608-.203-1.338-.306-2.17-.306a14.197 14.197 0 0 0-1.596.083 23.535 23.535 0 0 0-1.32.185l-.129.023V15.53h1.272V9.66c.428.073.92.111 1.46.111.72 0 1.395-.092 2.005-.273a4.48 4.48 0 0 0 1.607-.838 4.056 4.056 0 0 0 1.074-1.395c.26-.552.393-1.201.393-1.932 0-.604-.096-1.147-.282-1.615a3.695 3.695 0 0 0-.79-1.221zm-1.17 5.322c-.652.548-1.577.825-2.75.825-.322 0-.627-.014-.907-.04a4.259 4.259 0 0 1-.639-.107V2.57c.168-.03.376-.06.62-.086.31-.033.684-.05 1.111-.05a5.292 5.292 0 0 1 1.454.189 3.346 3.346 0 0 1 1.117.547c.306.237.545.545.712.915.168.376.252.824.252 1.33 0 1.054-.327 1.862-.97 2.403zm9.845 6.406c-.014-.394-.02-.79-.02-1.185V9.167c0-.459-.046-.927-.136-1.393a3.534 3.534 0 0 0-.527-1.296 2.949 2.949 0 0 0-1.074-.953c-.452-.244-1.04-.367-1.75-.367a5.58 5.58 0 0 0-1.5.2 4.764 4.764 0 0 0-1.403.668l-.103.072.43 1.005.155-.105a4.158 4.158 0 0 1 1.1-.523 4.115 4.115 0 0 1 1.22-.188c.53 0 .954.096 1.257.285.306.192.537.43.687.707.155.286.257.59.302.907.048.329.07.623.07.875v.112c-1.885-.008-3.358.306-4.336.936-1.026.66-1.546 1.602-1.546 2.796 0 .344.061.69.183 1.032.123.346.31.656.554.921.246.269.564.487.944.65.379.165.824.248 1.322.248a3.701 3.701 0 0 0 1.999-.547 3.84 3.84 0 0 0 .693-.543 3.936 3.936 0 0 0 .242-.267h.049l.117 1.131h1.226l-.034-.181a7.807 7.807 0 0 1-.12-1.124zm-1.291-1.984c0 .135-.033.321-.094.545a2.784 2.784 0 0 1-.342.68 2.614 2.614 0 0 1-1.333 1.006 3.112 3.112 0 0 1-1.02.155 2.02 2.02 0 0 1-.67-.114 1.618 1.618 0 0 1-.564-.338 1.68 1.68 0 0 1-.396-.573c-.1-.231-.15-.517-.15-.85 0-.545.147-.988.434-1.311a2.855 2.855 0 0 1 1.135-.769 5.818 5.818 0 0 1 1.532-.35 13.96 13.96 0 0 1 1.468-.063zm9.925-6.857l-2.374 6.454c-.148.39-.286.783-.412 1.165l-.177.544h-.045a47.989 47.989 0 0 0-.182-.564c-.123-.379-.255-.75-.39-1.104l-2.54-6.495h-1.357l3.632 9.337c.095.225.11.328.11.37 0 .013-.005.09-.112.373a6.771 6.771 0 0 1-.77 1.432 8.481 8.481 0 0 1-.796.956 4.34 4.34 0 0 1-.85.673 8.123 8.123 0 0 1-.804.422l-.138.062.443 1.075.14-.053a9.44 9.44 0 0 0 .66-.302c.33-.163.697-.422 1.089-.772a5.634 5.634 0 0 0 .916-1.032c.268-.385.536-.837.8-1.339.26-.5.52-1.07.774-1.694a83.11 83.11 0 0 0 .809-2.081L42 5.384z" stroke-width=".789"></path></svg><svg viewBox="-8 -8 34 26" width="34" height="26" id="arrow-bottom" y="222"><path d="M.2.2c.3-.3.9-.3 1.2 0L9 8 16.6.3c.3-.3.9-.3 1.2 0 .3.3.3.9 0 1.2L9.6 9.8c-.2.1-.4.2-.6.2-.2 0-.4-.1-.6-.2L.2 1.4C-.1 1.1-.1.6.2.2z" fill-rule="evenodd" clip-rule="evenodd" fill="#1d2024"></path></svg><svg width="38" height="29" viewBox="-8 -8 38 29" id="arrow-l-up" y="248"><path fill-rule="evenodd" fill="#FFF" d="M21.692 11.722a1.018 1.018 0 0 1-1.44 0l-9.268-9.28-9.267 9.28a1.019 1.019 0 0 1-1.439-1.441L10.234.309c.207-.207.48-.3.751-.292.27-.008.543.085.75.292l9.957 9.972a1.02 1.02 0 0 1 0 1.441z"></path></svg><svg viewBox="-8 -8 35 50" width="35" height="50" id="arrow-left" y="277"><path d="M17.3 0l1.4 1.4L3.1 17l15.6 15.6-1.4 1.4L1.7 18.4.3 17l1.4-1.4L17.3 0z"></path></svg><svg viewBox="-8 -8 39 68" width="39" height="68" id="arrow-left-large" y="327"><path fill="#fff" stroke="#e6ebf0" d="M22.6.2c.4.3.5 1 .2 1.4L2.3 26l20.5 24.4c.2.2.3.5.2.7 0 .5-.5.9-1.1.9-.3 0-.5-.1-.7-.3l-21-25-.1-.1c0-.1-.1-.1-.1-.2s-.1-.1-.1-.2v-.6s0-.1.1-.1L21.2.4c.4-.5 1-.5 1.4-.2z"></path></svg><svg width="26" height="32" viewBox="-8 -8 26 32" id="arrow-m-left" y="395"><path fill="#FFF" fill-rule="evenodd" d="M8.706 1.764l-6.224 6.24 6.225 6.241a1.036 1.036 0 0 1 0 1.46c-.4.403-1.05.403-1.451 0L.354 8.785a1.031 1.031 0 0 1-.236-.395 1.04 1.04 0 0 1 .207-1.156L7.245.295a1.028 1.028 0 0 1 1.461 0 1.042 1.042 0 0 1 0 1.469z" opacity=".8"></path></svg><svg width="25" height="32" viewBox="-8 -8 25 32" id="arrow-m-right" y="427"><path fill="#FFF" fill-rule="evenodd" d="M8.913 8.388a1.002 1.002 0 0 1-.237.397l-6.926 6.92a1.03 1.03 0 0 1-1.458 0c-.4-.403-.4-1.057 0-1.46L6.54 8.004.295 1.764a1.04 1.04 0 0 1 0-1.469 1.034 1.034 0 0 1 1.466 0l6.944 6.939c.312.313.377.773.208 1.154z" opacity=".8"></path></svg><svg viewBox="-8 -8 35 50" width="35" height="50" id="arrow-right" y="459"><path d="M1.7 0L.3 1.4 15.9 17 .3 32.6 1.7 34l15.6-15.6 1.4-1.4-1.4-1.4L1.7 0z"></path></svg><svg viewBox="-8 -8 39 68" width="39" height="68" id="arrow-right-large" y="509"><path fill="#fff" stroke="#e6ebf0" d="M.4.2c-.4.3-.5 1-.1 1.4L20.7 26 .2 50.4c-.1.2-.2.4-.2.7 0 .5.5.9 1.1.9.3 0 .5-.1.7-.3l21-25v-.1c0-.1.1-.1.1-.2v-.8s0-.1-.1-.1L1.8.4C1.4-.1.8-.1.4.2z"></path></svg><svg width="24" height="22" viewBox="-8 -8 24 22" id="arrow-s-down" y="577"><path fill-rule="evenodd" fill="#1d2024" d="M7.705 1.754l-2.92 2.92a1.01 1.01 0 0 1-.395.238c-.381.17-.842.105-1.156-.208L.295 1.765a1.04 1.04 0 1 1 1.47-1.47l2.24 2.24L6.245.294a1.033 1.033 0 0 1 1.46 1.46z"></path></svg><svg width="21" height="24" viewBox="-8 -8 21 24" id="arrow-s-left" y="599"><path fill="#1d2024" fill-rule="evenodd" d="M2.481 4.006l2.226 2.24a1.036 1.036 0 0 1 0 1.46 1.023 1.023 0 0 1-1.452 0L.356 4.785a.999.999 0 0 1-.237-.394 1.041 1.041 0 0 1 .207-1.157L3.246.296a1.025 1.025 0 0 1 1.458 0 1.042 1.042 0 0 1 0 1.469L2.481 4.006z"></path></svg><svg viewBox="-8 -8 34 26" width="34" height="26" id="arrow-top" y="623"><path d="M17.8 9.8c-.3.3-.9.3-1.2 0L9 2 1.4 9.8c-.3.3-.9.3-1.2 0-.3-.3-.3-.9 0-1.2L8.3.3c.3-.2.5-.3.7-.3.2 0 .4.1.6.2l8.1 8.3c.4.4.4.9.1 1.3z" fill-rule="evenodd" clip-rule="evenodd" fill="#1d2024"></path></svg><svg width="26" height="23" viewBox="-8 -8 26 23" id="available" y="649"><path fill-rule="evenodd" fill="#FFF" d="M9.705 1.754l-4.92 4.921a1.015 1.015 0 0 1-.394.236 1.035 1.035 0 0 1-1.158-.208L.295 3.764a1.039 1.039 0 1 1 1.47-1.468l2.24 2.239L8.245.293a1.034 1.034 0 0 1 1.46 1.461z"></path></svg><svg viewBox="-8 -8 45.120999999999995 45.120999999999995" width="45.120999999999995" height="45.120999999999995" id="calendar" y="672"><g fill="#1d2024"><path d="M21.706 6.146c1.116 0 2.02-.898 2.02-2.016V2.02c0-1.119-.903-2.02-2.02-2.02s-2.019.9-2.019 2.02v2.111a2.014 2.014 0 0 0 2.019 2.015z"></path><path d="M28.882 3.494h-4.066v1.027a3.078 3.078 0 0 1-3.075 3.076 3.076 3.076 0 0 1-3.074-3.076V3.494h-8.205v1.027c0 1.695-1.379 3.076-3.076 3.076s-3.075-1.38-3.075-3.076V3.494L.208 3.443v25.678h26.656l2.049-.006-.031-25.621zm-2.02 23.582H2.26V10.672h24.604v16.404h-.002z"></path><path d="M7.354 6.146A2.016 2.016 0 0 0 9.375 4.13V2.02C9.375.9 8.47 0 7.354 0S5.336.9 5.336 2.02v2.111c0 1.117.901 2.015 2.018 2.015zm3.114 6.727h3.231v2.852h-3.231zm5.224 0h3.234v2.852h-3.234zm4.845 0h3.231v2.852h-3.231zm-10.069 4.736h3.231v2.85h-3.231zm5.224 0h3.234v2.85h-3.234zm4.845 0h3.231v2.85h-3.231zm-10.069 4.83h3.231v2.85h-3.231zm-5.132-4.83h3.229v2.85H5.336zm0 4.83h3.229v2.85H5.336zm10.356 0h3.234v2.85h-3.234zm4.845 0h3.231v2.85h-3.231z"></path></g></svg><svg width="36" height="34" viewBox="-8 -8 36 34" id="cart" y="718"><path fill-rule="evenodd" fill="#FFF" d="M19.999 7l-1.998 1-2.002 10H4L2 8 0 7V6h9.695L11.069.877a1 1 0 0 1 1.932.517L11.767 6h8.232v1zm-8.768 1l-.301 1.123a.998.998 0 0 1-1.223.707 1.005 1.005 0 0 1-.71-1.225L9.159 8H4l1.999 8H14l1.999-8h-4.768z"></path></svg><svg width="36" height="34" viewBox="-8 -8 36 34" id="cart-dark" y="752"><path fill-rule="evenodd" fill="#1d2024" d="M19.999 7l-1.998 1-2.002 10H4L2 8 0 7V6h9.695L11.069.877a1 1 0 0 1 1.932.517L11.767 6h8.232v1zm-8.768 1l-.301 1.123a.998.998 0 0 1-1.223.707 1.005 1.005 0 0 1-.71-1.225L9.159 8H4l1.999 8H14l1.999-8h-4.768z"></path></svg><svg width="32" height="32" viewBox="-8 -8 32 32" id="checkbox-chosen" y="786"><path fill="#68717A" fill-rule="evenodd" d="M4-.001h8a4 4 0 0 1 4 3.999V12a4 4 0 0 1-4 3.998H4A4 4 0 0 1 0 12V3.998A4 4 0 0 1 4-.001z"></path><path fill="#FFF" fill-rule="evenodd" d="M12.706 6.753l-4.92 4.921a1.03 1.03 0 0 1-.394.237 1.033 1.033 0 0 1-1.157-.208L3.296 8.764a1.04 1.04 0 0 1 1.469-1.469l2.24 2.24 4.241-4.243a1.034 1.034 0 0 1 1.46 1.461z"></path></svg><svg width="32" height="32" viewBox="-8 -8 32 32" id="checkbox-chosen-disabled" y="818"><path fill="#C2C7CC" fill-rule="evenodd" d="M4-.001h8A4 4 0 0 1 16 4v7.999a4 4 0 0 1-4 4H4a4 4 0 0 1-4-4V4A4 4 0 0 1 4-.001z"></path><path fill="#FFF" fill-rule="evenodd" d="M12.706 6.754l-4.92 4.92a1.03 1.03 0 0 1-.394.237 1.034 1.034 0 0 1-1.157-.207L3.296 8.765a1.04 1.04 0 0 1 1.469-1.47l2.24 2.239 4.241-4.241a1.034 1.034 0 0 1 1.46 1.461z"></path></svg><svg width="32" height="32" viewBox="-8 -8 32 32" id="checkbox-default" y="850"><path fill="#C2C7CC" fill-rule="evenodd" d="M4-.001h8a4 4 0 0 1 4 4v8a4 4 0 0 1-4 4H4a4 4 0 0 1-4-4v-8a4 4 0 0 1 4-4z"></path><path fill="#FFF" fill-rule="evenodd" d="M4 1h8a3 3 0 0 1 3 3v8a3 3 0 0 1-3 3H4a3 3 0 0 1-3-3V4a3 3 0 0 1 3-3z"></path></svg><svg width="32" height="32" viewBox="-8 -8 32 32" id="checkbox-disabled" y="882"><path fill="#C2C7CC" fill-rule="evenodd" d="M12 15.999H4a4 4 0 0 1-4-4v-8a4 4 0 0 1 4-4h8a4 4 0 0 1 4 4v8a4 4 0 0 1-4 4zM15 4a3 3 0 0 0-3-3H4a3 3 0 0 0-3 3v8a3 3 0 0 0 3 3h8a3 3 0 0 0 3-3V4z"></path></svg><svg width="32" height="32" viewBox="-8 -8 32 32" id="checkbox-error" y="914"><path fill="#D80A00" fill-rule="evenodd" d="M4-.001h8a4 4 0 0 1 4 4v8A4.001 4.001 0 0 1 12 16H4c-2.209 0-4-1.792-4-4.001v-8a4 4 0 0 1 4-4z"></path><path fill="#FFF" fill-rule="evenodd" d="M4 1h8a3 3 0 0 1 3 3v8a3 3 0 0 1-3 3H4a3 3 0 0 1-3-3V4a3 3 0 0 1 3-3z"></path></svg><svg width="32" height="32" viewBox="-8 -8 32 32" id="checkbox-error-chosen" y="946"><path fill="#D80A00" fill-rule="evenodd" d="M4-.001h8a4 4 0 0 1 4 4v8a4 4 0 0 1-4 4H4a4 4 0 0 1-4-4v-8a4 4 0 0 1 4-4z"></path><path fill="#FFF" fill-rule="evenodd" d="M12.706 6.754l-4.92 4.92a1.01 1.01 0 0 1-.395.237 1.034 1.034 0 0 1-1.156-.207l-2.939-2.94a1.04 1.04 0 0 1 1.469-1.469l2.24 2.24 4.241-4.242a1.033 1.033 0 1 1 1.46 1.461z"></path></svg><svg width="32" height="32" viewBox="-8 -8 32 32" id="checkbox-focus" y="978"><path fill="#68717A" fill-rule="evenodd" d="M4-.001h8a4 4 0 0 1 4 4v7.999A4.001 4.001 0 0 1 12 16H4c-2.209 0-4-1.792-4-4.002V3.999a4 4 0 0 1 4-4z"></path><path fill="#FFF" fill-rule="evenodd" d="M4 1h8a3 3 0 0 1 3 3v8a3 3 0 0 1-3 3H4a3 3 0 0 1-3-3V4a3 3 0 0 1 3-3z"></path></svg><svg viewBox="-8 -8 46 35" width="46" height="35" id="cirrus" y="1010"><path fill="#96a0aa" d="M28 0H2C.9 0 0 .9 0 2v15c0 1.1.9 2 2 2h26c1.1 0 2-.9 2-2V2c0-1.1-.9-2-2-2zM6.3 12.1c-.9.3-2 .3-2.9 0-.9-.3-1.5-1-1.7-2-.2-1.3.5-2.7 1.8-3.3 1.3-.5 2.7-.5 4-.1-.1.4-.2.6-.3 1.2-.9-.4-1.9-.4-2.8 0-.7.5-1.1 1.3-1 2.2.1.5.4.8.8 1 .8.3 1.6.2 2.3-.2 0 .4-.1.8-.2 1.2zm2.6.3H7.2l1-4.7h1.7l-1 4.7zm3.5-2.9c-.3.9-.6 1.9-.8 2.8H9.9l.1-.3c.3-1.4.7-2.9.9-4.3h1.5c0 .2 0 .5-.1.7.4-.6 1.2-.9 1.9-.8L13.8 9l-.3-.1c-.5 0-.9.2-1.1.6zm4.8-.6c-.4 0-.9.2-1.1.6-.3.9-.6 1.9-.8 2.8h-1.7l.1-.3c.3-1.4.7-2.9.9-4.3h1.5c0 .2 0 .5-.1.7.4-.6 1.2-.9 1.9-.8L17.5 9l-.3-.1zm5.6 3.5h-1.6l.1-.8c-.5.6-1.2.9-1.9.8-.8 0-1.5-.6-1.5-1.4v-.2c0-.3 0-.7.1-1l.5-2.2h1.7l-.5 2.2c-.1.2-.1.5-.1.7 0 .3.4.6.7.5.7 0 1.2-.6 1.3-1.3l.5-2.1h1.7l-.8 3.5c-.1.4-.2.8-.2 1.3zm5.3-3.6c-.4 0-.9-.1-1.2-.1-.6 0-.8.1-.8.4s.1.3.8.5c.9.3 1.2.7 1.2 1.3 0 1.1-.8 1.6-2.6 1.6h-.9l-.6-.1h-.4l.2-1.1c.5.1 1 .2 1.5.2.7 0 1-.1 1-.4s-.1-.3-.8-.5c-.9-.3-1.3-.8-1.3-1.3 0-.9.7-1.6 2.6-1.6.4 0 1.1 0 1.5.1l-.2 1z"></path></svg><svg width="46" height="46" viewBox="-8 -8 46 46" id="clock-l" y="1045"><path fill-rule="evenodd" fill="#1d2024" d="M14.992 29.998c-8.287 0-15.001-6.716-15.001-15 0-8.284 6.714-15 15.001-15 8.283 0 14.997 6.716 14.997 15 0 8.284-6.714 15-14.997 15zm0-28c-7.182 0-12.999 5.82-12.999 13s5.817 13 12.999 13c7.178 0 12.998-5.82 12.998-13s-5.82-13-12.998-13zm4.968 19.355l-5.587-5.588a.984.984 0 0 1-.381-.767v-6a.998.998 0 1 1 1.998 0v5.557l5.386 5.383a1.004 1.004 0 0 1 0 1.415c-.393.39-1.023.39-1.416 0z"></path></svg><svg width="46" height="46" viewBox="-8 -8 46 46" id="clock-l-light" y="1091"><path fill-rule="evenodd" fill="#fff" d="M14.992 29.998c-8.287 0-15.001-6.716-15.001-15 0-8.284 6.714-15 15.001-15 8.283 0 14.997 6.716 14.997 15 0 8.284-6.714 15-14.997 15zm0-28c-7.182 0-12.999 5.82-12.999 13s5.817 13 12.999 13c7.178 0 12.998-5.82 12.998-13s-5.82-13-12.998-13zm4.968 19.355l-5.587-5.588a.984.984 0 0 1-.381-.767v-6a.998.998 0 1 1 1.998 0v5.557l5.386 5.383a1.004 1.004 0 0 1 0 1.415c-.393.39-1.023.39-1.416 0z"></path></svg><svg width="26" height="26" viewBox="-8 -8 26 26" id="close" y="1137"><path fill="#FFF" fill-rule="evenodd" d="M6.381 4.998l3.323 3.325a.983.983 0 0 1-1.389 1.39L4.991 6.389 1.667 9.713a.984.984 0 0 1-1.391-1.39L3.6 4.998.276 1.674a.982.982 0 0 1 0-1.391.986.986 0 0 1 1.391 0l3.324 3.325L8.315.283a.983.983 0 0 1 1.389 1.391L6.381 4.998z"></path></svg><svg width="50" height="46" viewBox="-8 -8 50 46" id="collect" y="1163"><path fill-rule="evenodd" fill="#1d2024" d="M33.526 28.04l-1.578 1.5a1.573 1.573 0 0 1-1.098.446c-.422 0-.82-.163-1.116-.46l-3.664-3.664-1.546 2.558a1.556 1.556 0 0 1-1.47.77 1.57 1.57 0 0 1-1.349-.986L16.1 14.154a1.564 1.564 0 0 1 .348-1.697 1.577 1.577 0 0 1 1.696-.348l14.058 5.603a1.577 1.577 0 0 1 .203 2.826l-2.561 1.6 3.682 3.677c.61.614.61 1.611 0 2.225zm-5.597-5.464a.824.824 0 0 1-.238-.682.83.83 0 0 1 .384-.612l3.34-2.09-13.692-5.459 5.459 13.685 2.015-3.326a.82.82 0 0 1 .709-.403c.219 0 .43.087.589.244l4.357 4.353 1.431-1.361-4.354-4.349zM22.999 11a1 1 0 0 1-1-1V8c0-.552-.449-1-1-1h-18a1 1 0 0 0-1 1v19a1 1 0 0 0 1 1h14a1 1 0 0 1 0 2h-14c-1.654 0-3-1.346-3-3V8c0-1.654 1.346-3 3-3h4c0-3.314 1.687-5 5.001-5 3.313 0 4.999 1.686 4.999 5h4c1.654 0 3 1.346 3 3v2a1 1 0 0 1-1 1zM12 2c-2.206 0-3 .794-3 3h5.999c0-2.206-.794-3-2.999-3z"></path></svg><svg width="50" height="46" viewBox="-8 -8 50 46" id="collect-light" y="1209"><path fill-rule="evenodd" fill="#fff" d="M33.526 28.04l-1.578 1.5a1.573 1.573 0 0 1-1.098.446c-.422 0-.82-.163-1.116-.46l-3.664-3.664-1.546 2.558a1.556 1.556 0 0 1-1.47.77 1.57 1.57 0 0 1-1.349-.986L16.1 14.154a1.564 1.564 0 0 1 .348-1.697 1.577 1.577 0 0 1 1.696-.348l14.058 5.603a1.577 1.577 0 0 1 .203 2.826l-2.561 1.6 3.682 3.677c.61.614.61 1.611 0 2.225zm-5.597-5.464a.824.824 0 0 1-.238-.682.83.83 0 0 1 .384-.612l3.34-2.09-13.692-5.459 5.459 13.685 2.015-3.326a.82.82 0 0 1 .709-.403c.219 0 .43.087.589.244l4.357 4.353 1.431-1.361-4.354-4.349zM22.999 11a1 1 0 0 1-1-1V8c0-.552-.449-1-1-1h-18a1 1 0 0 0-1 1v19a1 1 0 0 0 1 1h14a1 1 0 0 1 0 2h-14c-1.654 0-3-1.346-3-3V8c0-1.654 1.346-3 3-3h4c0-3.314 1.687-5 5.001-5 3.313 0 4.999 1.686 4.999 5h4c1.654 0 3 1.346 3 3v2a1 1 0 0 1-1 1zM12 2c-2.206 0-3 .794-3 3h5.999c0-2.206-.794-3-2.999-3z"></path></svg><svg width="28" height="28" viewBox="-8 -8 28 28" id="cross" y="1255"><path fill-rule="evenodd" fill="#1d2024" d="M7.389 5.999l4.324 4.324a.983.983 0 1 1-1.391 1.39L5.998 7.39l-4.324 4.323a.983.983 0 1 1-1.39-1.39l4.323-4.324L.284 1.675A.983.983 0 1 1 1.674.284l4.324 4.324L10.322.284a.984.984 0 0 1 1.391 1.391L7.389 5.999z"></path></svg><svg viewBox="-8 -8 28 28" width="28" height="28" id="cross-compare" y="1283"><path fill="#69727b" d="M7 6l4.8-4.8c.3-.3.3-.7 0-1-.3-.3-.7-.3-1 0L6 5 1.2.2C.9-.1.5-.1.2.2c-.3.3-.3.7 0 1L5 6 .2 10.8c-.3.3-.3.7 0 1 .3.3.7.3 1 0L6 7l4.8 4.8c.3.3.7.3 1 .1s.3-.7.1-1l-.1-.1L7 6z"></path></svg><svg viewBox="-8 -8 28 28" width="28" height="28" id="cross-compare-active" y="1311"><path fill="#fff" d="M7 6l4.8-4.8c.3-.3.3-.7 0-1-.3-.3-.7-.3-1 0L6 5 1.2.2C.9-.1.5-.1.2.2c-.3.3-.3.7 0 1L5 6 .2 10.8c-.3.3-.3.7 0 1 .3.3.7.3 1 0L6 7l4.8 4.8c.3.3.7.3 1 .1s.3-.7.1-1l-.1-.1L7 6z"></path></svg><svg viewBox="-8 -8 28 28" width="28" height="28" id="cross-small-dark" y="1339"><path fill="#1d2024" d="M7 6l4.8-4.8c.3-.3.3-.7 0-1-.3-.3-.7-.3-1 0L6 5 1.2.2C.9-.1.5-.1.2.2c-.3.3-.3.7 0 1L5 6 .2 10.8c-.3.3-.3.7 0 1 .3.3.7.3 1 0L6 7l4.8 4.8c.3.3.7.3 1 .1s.3-.7.1-1l-.1-.1L7 6z"></path></svg><svg viewBox="-8 -8 28 28" width="28" height="28" id="cross-small-white" y="1367"><path fill="#fff" d="M7 6l4.8-4.8c.3-.3.3-.7 0-1-.3-.3-.7-.3-1 0L6 5 1.2.2C.9-.1.5-.1.2.2c-.3.3-.3.7 0 1L5 6 .2 10.8c-.3.3-.3.7 0 1 .3.3.7.3 1 0L6 7l4.8 4.8c.3.3.7.3 1 .1s.3-.7.1-1l-.1-.1L7 6z"></path></svg><svg width="56" height="46" viewBox="-8 -8 56 46" id="delivery" y="1395"><path fill-rule="evenodd" fill="none" d="M-.002 0h40.001v30H-.002V0z"></path><path fill-rule="evenodd" fill="#1d2024" d="M39.99 22.998a.999.999 0 0 1-.997.999h-3a4 4 0 1 1-8 0H17.991a4 4 0 1 1-8 0H7.99a1 1 0 0 1 0-1.999h2.556c.693-1.191 1.968-2 3.445-2a3.98 3.98 0 0 1 3.445 2h6.555V9.22c-.002-.017.002-.035 0-.052v-5.17H7.99a1 1 0 0 1 0-2h16.001c1.104 0 2.003.895 2.003 2v4.235L39.239 11.9c.47.13.756.58.744 1.063 0 .012.007.022.007.035v9c0 .204-.04.398-.097.584a.982.982 0 0 1 .097.416zm-25.999-1A2 2 0 1 0 13.989 26a2 2 0 0 0 .002-4.002zm17.998 4a2 2 0 1 0 .003-4.001 2 2 0 0 0-.003 4.001zm6.002-12.234l-11.997-3.323v11.557h2.553c.693-1.191 1.968-2 3.442-2 1.478 0 2.755.809 3.448 2h2.554v-8.234zM11.989 7.997a1 1 0 0 1-.996 1.001H4.989a1 1 0 0 1 0-2h6.004c.549 0 .996.447.996.999zM7.99 12.998c0 .552-.446 1-.999 1h-6a1.001 1.001 0 0 1 0-2h6c.553 0 .999.447.999 1zm-3.001 4h4.002c.555 0 1 .448 1 1s-.445 1-1 1H4.989a1 1 0 0 1 0-2z"></path></svg><svg width="56" height="46" viewBox="-8 -8 56 46" id="delivery-light" y="1441"><path fill-rule="evenodd" fill="none" d="M-.002 0h40.001v30H-.002V0z"></path><path fill-rule="evenodd" fill="#fff" d="M39.99 22.998a.999.999 0 0 1-.997.999h-3a4 4 0 1 1-8 0H17.991a4 4 0 1 1-8 0H7.99a1 1 0 0 1 0-1.999h2.556c.693-1.191 1.968-2 3.445-2a3.98 3.98 0 0 1 3.445 2h6.555V9.22c-.002-.017.002-.035 0-.052v-5.17H7.99a1 1 0 0 1 0-2h16.001c1.104 0 2.003.895 2.003 2v4.235L39.239 11.9c.47.13.756.58.744 1.063 0 .012.007.022.007.035v9c0 .204-.04.398-.097.584a.982.982 0 0 1 .097.416zm-25.999-1A2 2 0 1 0 13.989 26a2 2 0 0 0 .002-4.002zm17.998 4a2 2 0 1 0 .003-4.001 2 2 0 0 0-.003 4.001zm6.002-12.234l-11.997-3.323v11.557h2.553c.693-1.191 1.968-2 3.442-2 1.478 0 2.755.809 3.448 2h2.554v-8.234zM11.989 7.997a1 1 0 0 1-.996 1.001H4.989a1 1 0 0 1 0-2h6.004c.549 0 .996.447.996.999zM7.99 12.998c0 .552-.446 1-.999 1h-6a1.001 1.001 0 0 1 0-2h6c.553 0 .999.447.999 1zm-3.001 4h4.002c.555 0 1 .448 1 1s-.445 1-1 1H4.989a1 1 0 0 1 0-2z"></path></svg><svg id="discover" viewBox="-8 -8 46 35" width="46" height="35" y="1487"><style>.apst0{fill:#96a0aa}</style><path d="M2.3 7.7H2v2.9h.2c.4 0 .8-.1 1.2-.4.4-.2.5-.6.5-1s-.2-.8-.5-1.1c-.3-.3-.7-.4-1.1-.4zm24.4 0h-.3V9h.2c.4.1.7-.2.8-.5v-.2c0-.4-.3-.7-.7-.7.1.1.1.1 0 .1z" class="apst0"></path><path d="M28 0H2C.9 0 0 .9 0 2v15c0 1.1.9 2 2 2h26c1.1 0 2-.9 2-2V2c0-1.1-.9-2-2-2zM4 10.9c-.4.4-1 .5-1.6.5H1.2V7h1.3c1.2-.1 2.3.8 2.4 2v.2c-.1.7-.4 1.3-.9 1.7zm2.1.5h-.9V7h.9v4.4zm1.8.1c-.6 0-1.2-.3-1.5-.8l.6-.6c.2.4.5.6.9.6s.7-.2.7-.6c0-.2-.1-.4-.3-.5-.2-.1-.4-.1-.6-.2-.8-.3-1.1-.6-1.1-1.2 0-.7.6-1.3 1.3-1.3H8c.5 0 .9.2 1.3.5l-.4.6c-.2-.2-.5-.4-.7-.4-.3 0-.6.2-.6.5 0 .2.2.4.7.6 1 .4 1.3.7 1.3 1.4 0 .8-.6 1.4-1.4 1.5-.2-.1-.2-.1-.3-.1zm5.3-3.3c-.3-.3-.7-.5-1.1-.5-.8 0-1.5.7-1.5 1.5s.6 1.5 1.4 1.5h.1c.4 0 .8-.2 1-.5v1.1c-.3.2-.7.3-1.1.3-1.3 0-2.3-.9-2.3-2.2v-.1C9.7 8 10.7 7 12 7c.4 0 .7.1 1.1.3v.9zm4.9 1.5v.2c-.4 1.2-1.7 1.9-3 1.6-1.2-.4-1.9-1.7-1.6-3 .4-1.2 1.7-1.9 3-1.6 1 .3 1.7 1.2 1.7 2.2 0 .3 0 .4-.1.6zm2.1 1.8h-.4L17.9 7h.9l1.2 3 1.2-3h.9l-1.9 4.5zM25 7.7h-1.6v1h1.5v.8h-1.5v1.2H25v.8h-2.4V7H25v.7zm2.8 3.7l-1.2-1.8h-.1v1.8h-.9V7h1.3c1 0 1.6.5 1.6 1.3 0 .6-.4 1.2-1 1.3l1.4 1.9c-.1-.1-1.1-.1-1.1-.1z" class="apst0"></path></svg><svg width="91" height="91" viewBox="-8 -8 91 91" id="econtact-form" y="1522"><path fill="#1d2024" fill-rule="evenodd" d="M64.017 10.983C56.934 3.901 47.516 0 37.5 0 27.483 0 18.066 3.901 10.983 10.983 3.9 18.067 0 27.484 0 37.5c0 10.016 3.901 19.433 10.984 26.517C18.067 71.099 27.484 75 37.5 75a37.558 37.558 0 0 0 17.804-4.488 2.023 2.023 0 0 0 .816-2.737 2.005 2.005 0 0 0-1.199-.975 2.011 2.011 0 0 0-1.537.159A33.508 33.508 0 0 1 37.5 70.96c-18.45 0-33.461-15.01-33.461-33.46C4.039 19.049 19.05 4.038 37.5 4.038S70.961 19.049 70.961 37.5c0 4.367-1.066 9.576-2.024 11.519-.867 1.759-3.33 4.235-6.092 4.235a6.49 6.49 0 0 1-6.483-6.482V22.824a2.021 2.021 0 0 0-2.02-2.019 2.021 2.021 0 0 0-2.019 2.019v3.006l-.443-.522a18.838 18.838 0 0 0-14.38-6.67c-10.401 0-18.862 8.461-18.862 18.862 0 10.4 8.461 18.862 18.862 18.862 5.741 0 11.104-2.578 14.713-7.073l.315-.392.125.487a10.517 10.517 0 0 0 10.192 7.909c4.279 0 8.127-3.264 9.716-6.489C73.928 48.028 75 42.183 75 37.5c0-10.016-3.901-19.433-10.983-26.517zM37.5 52.323c-8.174 0-14.823-6.65-14.823-14.823 0-8.174 6.649-14.824 14.823-14.824s14.823 6.65 14.823 14.824c0 8.173-6.649 14.823-14.823 14.823z"></path></svg><svg width="40" height="32" viewBox="-8 -8 40 32" id="envelope" y="1613"><path fill-rule="evenodd" fill="#96A0AA" d="M22.401 16.003H1.609c-.88 0-1.6-.686-1.6-1.524V3.262c0-.838.574-1.11 1.275-.603l9.443 6.835c.354.253.816.377 1.278.372.461.005.924-.118 1.277-.372l9.444-6.835c.701-.507 1.275-.235 1.274.603v11.217c0 .838-.72 1.524-1.599 1.524zm-8.941-8.54c-.392.296-.932.427-1.456.403-.525.024-1.065-.107-1.456-.403L1.906.936c-.69-.52-.534-.946.345-.946h19.506c.879 0 1.036.426.345.946L13.46 7.463z"></path></svg><svg width="32" height="32" viewBox="-8 -8 32 32" id="error" y="1645"><path fill="#d80a00" fill-rule="evenodd" d="M8 0a8 8 0 1 1 0 16A8 8 0 0 1 8 0z"></path><path fill="#FFF" fill-rule="evenodd" d="M8 9a1 1 0 0 1-1-1V4a1 1 0 0 1 2 0v4a1 1 0 0 1-1 1zm0 2a1 1 0 1 1 0 2 1 1 0 0 1 0-2z"></path></svg><svg width="56" height="46" viewBox="-8 -8 56 46" id="exclusive" y="1677"><path fill-rule="evenodd" fill="#f99c24" d="M37.757 18.66l1.864 2.009c.699.753.438 1.971-.684 3.178-.704.758-1.414 1.151-2.016 1.151a1.23 1.23 0 0 1-.932-.415l-1.003-1.08-.862-.93-1.439 1.895a.9.9 0 0 1-.87.353.957.957 0 0 1-.72-.642l-4.027-11.837a1.052 1.052 0 0 1 .217-1.051.89.89 0 0 1 .654-.294c.105 0 .215.021.32.063l5.609 2.215 5.381 2.123a.99.99 0 0 1 .597.772c.054.354-.072.713-.33.94l-1.759 1.55zm-3.645-3.16l-4.611-1.821 2.78 8.165 1.055-1.392a.904.904 0 0 1 .671-.366l.047-.001a.88.88 0 0 1 .585.243c.023.019.05.028.073.051l2.356 2.538c.327-.204.818-.73 1.005-1.085l-2.355-2.541a1.051 1.051 0 0 1-.271-.756 1.03 1.03 0 0 1 .337-.725l1.299-1.138-2.971-1.172zm-.003-4.547c-.041.004-.077.023-.119.023a1 1 0 0 1-.999-1V2.998c0-.552-.452-1-.998-1H4.99a1 1 0 0 0-.998 1v17h22.999c.552 0 .998.447.998 1 0 .553-.446 1-.998 1H3.714l-1.715 5.135c.067.488.486.865.993.865h8.45c0-.151.029-.302.1-.447l.998-2a.998.998 0 0 1 .894-.553h11.003c.375 0 .724.214.891.553l1.002 2a.972.972 0 0 1 .095.447h7.565c.552 0 1.003-.448 1.003-1 0-.512.388-.918.884-.977.038-.004.074-.023.114-.023.554 0 1 .447 1 1 0 1.654-1.346 3-3.001 3H2.992a3.003 3.003 0 0 1-2.999-3c0-.107.015-.214.048-.316l1.95-5.846V2.998c0-1.654 1.346-3 2.999-3h27.003c1.653 0 3 1.346 3 3v6.978a.991.991 0 0 1-.884.977zm-9.793 17.045l-.5-1h-9.761l-.503 1h10.764z"></path></svg><svg width="25" height="34" viewBox="-8 -8 25 34" id="facebook" y="1723"><path fill-rule="evenodd" fill="#FFF" d="M2.041 5.884H0v3.077h2.041V18h3.928V8.922H8.71L9 5.883H5.968v-1.73c0-.718.157-1 .905-1H9V-.001H6.281c-2.921 0-4.24 1.188-4.24 3.462v2.423z"></path></svg><svg viewBox="-8 -8 28 36" width="28" height="36" id="fb" y="1757"><path d="M1.3 10.7h2.2v9c0 .2.1.3.3.3h3.7c.2 0 .3-.1.3-.3v-9h2.5c.2 0 .3-.1.3-.3l.4-3.3c0-.2-.1-.3-.3-.4H7.8V4.6c0-.6.3-.9 1-.9h1.9c.2 0 .3-.1.3-.3v-3c0-.2-.1-.3-.3-.3H8c-.5-.1-2 0-3.3 1.1C3.3 2.5 3.5 4 3.6 4.3v2.4H1.3c-.2 0-.4.2-.4.3v3.3c0 .2.2.4.4.4z"></path></svg><svg viewBox="-8 -8 28 36" width="28" height="36" id="fb-footer" y="1793"><path fill="#96a0aa" d="M1.3 10.7h2.2v9c0 .2.1.3.3.3h3.7c.2 0 .3-.1.3-.3v-9h2.5c.2 0 .3-.1.3-.3l.4-3.3c0-.2-.1-.3-.3-.4H7.8V4.6c0-.6.3-.9 1-.9h1.9c.2 0 .3-.1.3-.3v-3c0-.2-.1-.3-.3-.3H8c-.5-.1-2 0-3.3 1.1C3.3 2.5 3.5 4 3.6 4.3v2.4H1.3c-.2 0-.4.2-.4.3v3.3c0 .2.2.4.4.4z"></path></svg><svg width="34" height="26" viewBox="-8 -8 34 26" id="filter-accordion-arrow" y="1829"><path fill-rule="evenodd" fill="#1d2024" d="M17.748 1.432l-8.147 8.31a.816.816 0 0 1-.614.243.82.82 0 0 1-.614-.243L.227 1.432a.862.862 0 0 1 0-1.201.821.821 0 0 1 1.178 0l7.582 7.733L16.57.231a.821.821 0 0 1 1.178 0 .862.862 0 0 1 0 1.201z"></path></svg><svg width="28" height="28" viewBox="-8 -8 28 28" id="filter-remove" y="1855"><path fill-rule="evenodd" fill="#1d2024" d="M7.39 6l4.324 4.324a.984.984 0 0 1-1.391 1.39L5.999 7.39l-4.324 4.324a.984.984 0 0 1-1.391-1.39L4.608 6 .284 1.676A.984.984 0 0 1 1.675.285l4.324 4.324L10.323.285a.984.984 0 0 1 1.391 1.391L7.39 6z"></path></svg><svg viewBox="-8 -8 45 34" width="45" height="34" id="g-plus" y="1883"><path d="M10.4 10.8h4.4c-.8 2.2-2.9 3.7-5.3 3.7-3 0-5.4-2.4-5.5-5.3-.2-3.1 2.2-5.7 5.3-5.8 1.5-.1 2.9.5 4 1.4.2.2.6.2.8 0l1.6-1.5c.2-.2.3-.6 0-.9C14 .9 11.9 0 9.7 0 4.7-.1.5 4 .5 8.9c-.1 5 3.9 9 8.9 9.1 4.8.1 8.8-3.7 9.1-8.5V7.4h-8.1c-.4 0-.6.3-.6.6v2.2c0 .4.2.6.6.6m15.5-3.2V5.5c0-.3-.2-.5-.5-.5h-1.8c-.3 0-.5.2-.5.5v2.2h-2.2c-.3 0-.5.2-.5.5V10c0 .3.2.5.5.5H23v2.2c0 .3.2.5.5.5h1.8c.3 0 .5-.2.5-.5v-2.2H28c.3 0 .5-.2.5-.5V8.1c0-.3-.2-.5-.5-.5h-2.1z"></path></svg><svg viewBox="-8 -8 45 34" width="45" height="34" id="g-plus-footer" y="1917"><path fill="#96a0aa" d="M10.4 10.8h4.4c-.8 2.2-2.9 3.7-5.3 3.7-3 0-5.4-2.4-5.5-5.3-.2-3.1 2.2-5.7 5.3-5.8 1.5-.1 2.9.5 4 1.4.2.2.6.2.8 0l1.6-1.5c.2-.2.3-.6 0-.9C14 .9 11.9 0 9.7 0 4.7-.1.5 4 .5 8.9c-.1 5 3.9 9 8.9 9.1 4.8.1 8.8-3.7 9.1-8.5V7.4h-8.1c-.4 0-.6.3-.6.6v2.2c0 .4.2.6.6.6m15.5-3.2V5.5c0-.3-.2-.5-.5-.5h-1.8c-.3 0-.5.2-.5.5v2.2h-2.2c-.3 0-.5.2-.5.5V10c0 .3.2.5.5.5H23v2.2c0 .3.2.5.5.5h1.8c.3 0 .5-.2.5-.5v-2.2H28c.3 0 .5-.2.5-.5V8.1c0-.3-.2-.5-.5-.5h-2.1z"></path></svg><svg id="geotrust" viewBox="-8 -8 118 33" width="118" height="33" y="1951"><style>.aust0{fill:#96a0aa}</style><path d="M8 4.3c1.5-1.1 3.3-1.6 5.1-1.4V.1H0v13.2h4.5c-.1-.1-.1-.2-.1-.3-1.3-2.6.3-6.5 3.6-8.7zM30.3 8h2.9v3.6c-.8.3-1.7.4-2.5.4-3.6-.1-4.6-1.9-4.8-5.1-.1-2.4 1.1-5.1 4.2-5.1 1.4 0 2.7.4 3 1.9H35C34.9 1.2 32.5.3 30.4.3S26.2 1 25.1 3C24.4 4.2 24 5.5 24 6.9c0 1.8.5 3.9 1.9 5.2s2.8 1.5 4.6 1.5c1.5 0 2.9-.3 4.3-.7V6.5h-4.6l.1 1.5zm10.5-3.9c-2.8 0-4.1 2.2-4.1 4.7s1.1 4.6 4 4.6c2.1 0 3.7-1 3.9-3h-1.8c-.2 1.3-.8 1.8-2.1 1.8-1.7 0-2.3-1.6-2.2-3.2h6.2v-.7c0-2.4-1.3-4.1-3.9-4.2zM38.5 8c0-1.4.8-2.6 2.2-2.6C42.3 5.4 43 6.5 43 8h-4.5zm11.8-3.9c-2.9 0-4.4 1.9-4.4 4.7s1.5 4.7 4.4 4.7c2.9 0 4.4-1.9 4.4-4.7s-1.5-4.7-4.4-4.7zm0 8.2c-2 0-2.6-1.6-2.6-3.5s.7-3.5 2.6-3.5c2 0 2.6 1.6 2.6 3.5s-.6 3.5-2.6 3.5zM64 .5H52.6V3h3.9v10.2H60V3h4V.5z" class="aust0"></path><path d="M65.9 6.1l-.1-1.7h-3.4c.1.8.1 1.5.1 2.3v6.6h3.3V9.7c0-1.7.6-2.7 2.4-2.7h.7V4.1c-1.5 0-2.6.5-3 2zm13.9-1.7h-3.3v5.1c0 .1.2 1.9-1.4 1.9-1 0-1.2-.9-1.3-1.8V4.4h-3.3v5.9c-.1 1.7 1.3 3.1 3 3.2h.3c1.1 0 2.1-.4 2.8-1.2l.1 1h3.4c-.1-.8-.1-1.5-.1-2.3l-.2-6.6zm8.5 3.8c-2.1-.7-3.4-.6-3.4-1.2 0-.4.3-.8.6-.8h.1c.3 0 .7.1.9.3.2.2.2.5.2.7h3.2c-.1-2.5-2.1-3-4.2-3-1.8 0-4.1.6-4.1 2.8 0 3.2 5.2 2.3 5.2 3.8 0 .6-.5.8-1.1.8-.3 0-.6-.2-.8-.4-.2-.2-.3-.5-.2-.8h-3.2c0 2.7 2.1 3.1 4.3 3.1 2 0 4.2-.6 4.2-2.9.2-1.1-.6-2.2-1.7-2.4zM96 1.8L92.7 3v1.4H91v2.1h1.7v4c-.2 2.7 1.2 3 3.5 3 .6 0 1.2-.1 1.8-.2v-2c-.4 0-.9.1-1.3 0-.8 0-.6-1.1-.6-1.4V6.5H98V4.4h-2V1.8zm5.6 2.6c-.5-.5-1.2-.5-1.7 0-.2.2-.4.5-.4.9.1.7.8 1.1 1.5 1 .5-.1.9-.5 1-1 0-.3-.1-.6-.4-.9zm-.2 1.6c-.3.4-.9.4-1.3.1L100 6c-.4-.4-.4-1 0-1.3.3-.4.9-.4 1.3-.1l.1.1c.4.3.4.9 0 1.3z" class="aust0"></path><path d="M101 5.3c.1 0 .1 0 .1-.1l.1-.1v-.2c0-.1 0-.2-.1-.2-.1-.1-.2-.1-.3-.1h-.5v1.3h.3v-.5h.1c.1 0 .1 0 .1.1V6h.4v-.5c0-.1-.1-.2-.2-.2zm0-.3v.2h-.3v-.4h.3V5zm-87.9-.6c-3.5 0-6.3 2.8-6.3 6.3 0 .4 0 .8.1 1.2.1.5.4.9.8 1 .1.1.3.1.4.1.7 0 1.4-.1 2-.5.9-.7 1.6-1.5 1.9-2.6-1.1.1-2.1.3-3.1.5v-2l7-.5v6.6l-2.1.1v-.2c.1-.6.2-1.1.2-1.7 0-.3.1-.7.1-1-.3.4-.6.7-.9 1-.3.3-.7.5-1 .8-.2.1-.4.3-.7.4-.5.2-1 .4-1.5.5-.5.1-1.1.2-1.7.2 1.2 1.4 2.9 2.1 4.7 2.1 3.5-.1 6.2-3 6.1-6.4-.1-3.1-2.7-5.8-6-5.9z" class="aust0"></path></svg><svg width="62" height="36" viewBox="-8 -8 62 36" id="googlepay-color" y="1984"><path d="M21.756 10.341v5.31h-1.698V2.544h4.505a4.116 4.116 0 0 1 2.922 1.14 3.597 3.597 0 0 1 1.213 2.758 3.64 3.64 0 0 1-1.213 2.78c-.791.742-1.762 1.118-2.912 1.118zm0-6.186v4.577h2.849c.633.021 1.245-.23 1.677-.68a2.215 2.215 0 0 0 .043-3.155l-.043-.042a2.203 2.203 0 0 0-1.677-.69zM32.612 6.39c1.256 0 2.247.335 2.975.993.728.669 1.087 1.578 1.087 2.738v5.518h-1.625v-1.244h-.074c-.706 1.024-1.635 1.536-2.806 1.536-.992 0-1.836-.292-2.5-.877a2.76 2.76 0 0 1-1.002-2.195c0-.93.358-1.662 1.065-2.216.707-.553 1.656-.825 2.838-.825 1.013 0 1.836.188 2.49.543v-.386a1.92 1.92 0 0 0-.696-1.484 2.482 2.482 0 0 0-1.636-.617c-.95 0-1.698.397-2.257 1.191l-1.498-.93c.812-1.16 2.025-1.745 3.64-1.745zm-2.194 6.51c0 .44.21.847.559 1.098.38.293.844.45 1.319.439.717 0 1.403-.282 1.91-.784.558-.522.843-1.139.843-1.85-.527-.418-1.266-.627-2.215-.627-.686 0-1.266.168-1.73.492-.454.334-.686.742-.686 1.233zM46 6.685L40.324 19.6h-1.751l2.11-4.514-3.735-8.392h1.846l2.69 6.438h.043l2.627-6.438z" fill="#5f6368"></path><path d="M14.888 9.192a9.21 9.21 0 0 0-.126-1.526H7.599v2.895h4.103a3.482 3.482 0 0 1-1.519 2.289v1.88h2.448c1.435-1.306 2.257-3.239 2.257-5.538z" fill="#4285f4"></path><path d="M7.599 16.549c2.046 0 3.776-.669 5.032-1.818l-2.448-1.881c-.686.46-1.561.72-2.584.72-1.984 0-3.661-1.327-4.263-3.103H.815v1.944a7.615 7.615 0 0 0 6.784 4.138z" fill="#34a853"></path><path d="M3.336 10.467a4.5 4.5 0 0 1 0-2.884V5.649H.815a7.532 7.46 0 0 0 0 6.751z" fill="#fbbc04"></path><path d="M7.599 4.479a4.11 4.11 0 0 1 2.911 1.128l2.163-2.142A7.29 7.29 0 0 0 7.599 1.5 7.605 7.605 0 0 0 .815 5.65l2.521 1.943c.602-1.787 2.28-3.114 4.263-3.114z" fill="#ea4335"></path></svg><svg width="32" height="32" viewBox="-8 -8 32 32" id="info" y="2020"><path fill="#1d2024" fill-rule="evenodd" d="M7.998 16A8.002 8.002 0 0 1-.003 8c0-4.418 3.584-8 8.001-8a7.998 7.998 0 0 1 7.999 8c0 4.418-3.578 8-7.999 8zm0-14A6 6 0 1 0 8 14a6 6 0 0 0-.002-12zm0 11c-.55 0-1-.448-1-1V8c0-.553.45-1 1-1 .553 0 .998.447.998 1v4c0 .552-.445 1-.998 1zm0-8c-.55 0-1-.448-1-1s.45-1 1-1c.553 0 .998.448.998 1s-.445 1-.998 1z"></path></svg><svg width="36" height="36" viewBox="-8 -8 36 36" id="instagram" y="2052"><path fill-rule="evenodd" fill="#FFF" d="M19.94 14.123c-.048 1.064-.218 1.791-.465 2.427a4.903 4.903 0 0 1-1.153 1.77 4.892 4.892 0 0 1-1.771 1.154c-.636.247-1.363.416-2.427.465-1.068.05-1.408.061-4.125.061-2.715 0-3.055-.011-4.122-.06-1.064-.049-1.791-.218-2.427-.465a4.923 4.923 0 0 1-1.771-1.153 4.897 4.897 0 0 1-1.153-1.771c-.247-.636-.416-1.363-.465-2.427C.012 13.056-.001 12.716-.001 10c0-2.716.013-3.056.061-4.123.049-1.064.218-1.791.465-2.427a4.927 4.927 0 0 1 1.153-1.772A4.91 4.91 0 0 1 3.45.525C4.086.278 4.813.109 5.877.06 6.944.012 7.284 0 9.999 0c2.717 0 3.057.012 4.124.06 1.064.048 1.79.218 2.427.465a4.876 4.876 0 0 1 1.771 1.153 4.897 4.897 0 0 1 1.153 1.771c.247.636.415 1.363.465 2.427.048 1.068.06 1.408.06 4.124 0 2.716-.012 3.056-.059 4.123zm-1.8-8.164c-.045-.975-.207-1.504-.344-1.857a3.102 3.102 0 0 0-.747-1.15 3.104 3.104 0 0 0-1.151-.748c-.352-.137-.882-.3-1.858-.344-1.054-.048-1.37-.058-4.041-.058-2.669 0-2.985.01-4.04.058-.974.045-1.504.208-1.857.344-.467.181-.8.398-1.15.748-.35.35-.567.683-.748 1.15-.137.352-.3.882-.344 1.857C1.812 7.014 1.802 7.33 1.802 10c0 2.67.01 2.986.058 4.041.044.975.207 1.504.344 1.856.181.468.398.801.748 1.151s.683.567 1.15.748c.352.137.883.3 1.857.344 1.055.048 1.371.058 4.04.058 2.671 0 2.988-.01 4.041-.058.976-.045 1.505-.207 1.858-.344.467-.181.8-.398 1.151-.748.349-.35.566-.683.747-1.151.137-.351.299-.881.344-1.856.048-1.054.058-1.371.058-4.041 0-2.67-.01-2.986-.058-4.041zm-2.803-.097a1.2 1.2 0 1 1 .002-2.4 1.2 1.2 0 0 1-.002 2.4zm-5.338 9.273a5.135 5.135 0 1 1 .002-10.27 5.135 5.135 0 0 1-.002 10.27zm0-8.468a3.333 3.333 0 1 0 0 6.667 3.333 3.333 0 0 0 0-6.667z"></path></svg><svg id="instagram-footer" viewBox="-8 -8 36 36" width="36" height="36" y="2088"><style>.awst0{fill:#96a0aa}</style><path d="M10 6.7c1.8 0 3.3 1.5 3.3 3.3s-1.5 3.3-3.3 3.3-3.3-1.5-3.3-3.3c0-1.8 1.5-3.3 3.3-3.3" class="awst0"></path><path d="M19.9 5.9c0-.8-.2-1.6-.5-2.4-.3-.7-.6-1.3-1.2-1.8-.5-.5-1.1-.9-1.8-1.2C15.6.2 14.8 0 14 0h-4C7.3 0 6.9 0 5.9.1c-.8 0-1.6.2-2.4.5-.7.2-1.3.6-1.8 1.1-.5.5-.9 1.1-1.2 1.8-.3.7-.4 1.6-.4 2.4C0 6.9 0 7.3 0 10s0 3.1.1 4.1c0 .8.2 1.6.5 2.4.3.7.6 1.3 1.2 1.8.5.5 1.1.9 1.8 1.2.8.3 1.6.5 2.4.5h4c2.7 0 3.1 0 4.1-.1.8 0 1.6-.2 2.4-.5.7-.3 1.3-.6 1.8-1.2.5-.5.9-1.1 1.2-1.8.3-.8.5-1.6.5-2.4v-4c0-2.7 0-3.1-.1-4.1M10 15.1c-2.8 0-5.1-2.3-5.1-5.1S7.2 4.9 10 4.9s5.1 2.3 5.1 5.1-2.3 5.1-5.1 5.1m5.3-9.2c-.7 0-1.2-.5-1.2-1.2s.5-1.2 1.2-1.2 1.2.5 1.2 1.2c0 .6-.5 1.2-1.2 1.2.1 0 0 0 0 0" class="awst0"></path></svg><svg height="30" width="76" viewBox="-8 -8 76 30" id="klarna" y="2124"><path d="M57.349 10.125a1.657 1.649 0 0 0-1.651 1.657 1.657 1.649 0 0 0 1.65 1.658c.912 0 1.652-.742 1.652-1.658a1.657 1.649 0 0 0-1.651-1.657zm-5.434-1.28c0-1.255-1.067-2.27-2.384-2.27-1.316 0-2.383 1.017-2.383 2.27 0 1.252 1.069 2.267 2.385 2.267 1.316 0 2.382-1.015 2.382-2.268zm.01-4.413h2.63v8.822h-2.63v-.561a4.585 4.561 0 0 1-2.608.807c-2.56 0-4.636-2.083-4.636-4.653 0-2.57 2.075-4.654 4.636-4.654.968 0 1.864.299 2.608.807zm-21.052 1.15V4.434h-2.694v8.82h2.7V9.135c0-1.39 1.5-2.135 2.54-2.135h.031V4.434c-1.069 0-2.049.458-2.577 1.148zm-6.71 3.262c0-1.255-1.067-2.27-2.384-2.27-1.316 0-2.384 1.017-2.384 2.27 0 1.253 1.07 2.268 2.386 2.268s2.382-1.015 2.382-2.268zm.01-4.412h2.631v8.822h-2.631v-.562a4.619 4.619 0 0 1-2.609.808c-2.56 0-4.635-2.084-4.635-4.654s2.075-4.653 4.635-4.653A4.6 4.6 0 0 1 24.173 5zm15.833-.236c-1.05 0-2.044.327-2.71 1.23v-.993h-2.62v8.82h2.653V8.618c0-1.34.895-1.998 1.974-1.998 1.156 0 1.822.693 1.822 1.98v4.653h2.626V7.645c0-2.052-1.626-3.449-3.745-3.449zm-26.91 9.058h2.754V.504h-2.753zM1 13.257h2.916V.5H1.001zM11.2.5c0 2.761-1.071 5.332-2.982 7.24l4.03 5.517H8.647L4.268 7.263l1.13-.85A7.385 7.347 0 0 0 8.346.5h2.853z" fill="#0a0b09" stroke-width="1.545"></path></svg><svg width="34" height="34" viewBox="-8 -8 34 34" id="linkedin" y="2154"><path fill-rule="evenodd" fill="#FFF" d="M4.396 2.213a2.208 2.208 0 0 1-2.199 2.215A2.206 2.206 0 0 1 0 2.213C0 .991.984-.001 2.197-.001c1.214 0 2.199.991 2.199 2.214zM4.073 6H.358v12h3.715V6zm5.941 0H6.45v12h3.564v-6.299c0-1.688.776-2.692 2.265-2.692 1.366 0 2.023.964 2.023 2.692V18H18v-7.599c0-3.215-1.822-4.768-4.369-4.768-2.545 0-3.617 1.982-3.617 1.982V5.999 6z"></path></svg><svg width="34" height="34" viewBox="-8 -8 34 34" id="list" y="2188"><path fill="none" fill-rule="evenodd" d="M0 0h18v18H0V0z"></path><path fill="#1d2024" fill-rule="evenodd" d="M16.998 10h-12a1.001 1.001 0 0 1-1.002-1c0-.552.449-1 1.002-1h12a1 1 0 0 1 0 2zm0-6h-12a1.001 1.001 0 0 1-1.002-1c0-.552.449-1 1.002-1h12a1 1 0 0 1 0 2zm-16 12a1 1 0 1 1-.002-2 1 1 0 0 1 .002 2zm0-6a1 1 0 1 1-.002-2 1 1 0 0 1 .002 2zm0-6a1 1 0 1 1-.002-2 1 1 0 0 1 .002 2zm4 10h12a1 1 0 0 1 0 2h-12a1.001 1.001 0 0 1-1.002-1c0-.552.449-1 1.002-1z"></path></svg><svg width="91" height="78" viewBox="-8 -8 91 78" id="live-chat" y="2222"><path fill="#1d2024" fill-rule="evenodd" d="M69.699 50.879C73.12 47.642 75 43.526 75 39.262c0-7.45-5.862-14.195-14.622-16.872C59.395 9.806 46.235-.002 30.226-.002 13.559-.002 0 10.707 0 23.871c0 5.719 2.576 11.223 7.261 15.53L5.008 51.714c-.14.768.184 1.55.827 1.988.632.435 1.5.454 2.151.051l12.008-7.424c3.738 1.079 7.913 1.546 12.094 1.34 3.966 5.981 11.654 9.684 20.146 9.684 2.569 0 5.075-.335 7.451-.997l8.644 5.343a1.97 1.97 0 0 0 2.15-.052c.642-.44.967-1.222.827-1.989l-1.607-8.779zM11.346 39.011a1.98 1.98 0 0 0-.671-1.871c-4.338-3.654-6.728-8.367-6.728-13.269 0-10.982 11.789-19.917 26.279-19.917 13.212 0 24.509 7.643 26.093 17.515a28.54 28.54 0 0 0-4.085-.298c-12.561 0-22.781 8.116-22.781 18.091 0 1.503.243 3.01.723 4.489-3.504-.001-6.819-.491-9.863-1.459h-.002a1.978 1.978 0 0 0-1.633.202L9.692 48.05l1.654-9.039zm54.271 11.488l1.005 5.497-5.618-3.474a1.957 1.957 0 0 0-1.63-.2c-2.246.714-4.648 1.075-7.14 1.075-10.385 0-18.833-6.341-18.833-14.135s8.448-14.134 18.833-14.134c10.377 0 18.818 6.34 18.818 14.134 0 3.45-1.692 6.777-4.764 9.366a1.98 1.98 0 0 0-.671 1.871z"></path></svg><svg width="30" height="34" viewBox="-8 -8 30 34" id="location" y="2300"><path fill-rule="evenodd" fill="#1d2024" d="M7 18S0 13.031 0 6.75C0 3.022 3.133 0 7 0c3.866 0 7 3.022 7 6.75C14 13.004 7 18 7 18zM7 2C4.242 2 2 4.131 2 6.75c0 3.741 3.212 7.096 4.998 8.672C8.782 13.842 12 10.476 12 6.75 12 4.131 9.757 2 7 2zm0 7a2 2 0 1 1-.001-3.999A2 2 0 0 1 7 9z"></path></svg><svg width="30" height="34" viewBox="-8 -8 30 34" id="location-light" y="2334"><path fill-rule="evenodd" fill="#fff" d="M7 18S0 13.031 0 6.75C0 3.022 3.133 0 7 0c3.866 0 7 3.022 7 6.75C14 13.004 7 18 7 18zM7 2C4.242 2 2 4.131 2 6.75c0 3.741 3.212 7.096 4.998 8.672C8.782 13.842 12 10.476 12 6.75 12 4.131 9.757 2 7 2zm0 7a2 2 0 1 1-.001-3.999A2 2 0 0 1 7 9z"></path></svg><svg width="32" height="34" viewBox="-8 -8 32 34" id="lock" y="2368"><path fill="#1d2024" fill-rule="evenodd" d="M11.999 17.999h-8a4 4 0 0 1-4-4v-4a4 4 0 0 1 4-4v-2a4 4 0 0 1 8 0v2a4 4 0 0 1 4 4v4a4 4 0 0 1-4 4zm-2-14a2 2 0 1 0-4 0v2h4v-2zm4 6a2 2 0 0 0-2-2h-8a2 2 0 0 0-2 2v4a2 2 0 0 0 2 2h8a2 2 0 0 0 2-2v-4zm-5.999 4a2 2 0 1 1-.001-4 2 2 0 0 1 .001 4z"></path></svg><svg width="32" height="34" viewBox="-8 -8 32 34" id="lock-white" y="2402"><path fill="#FFF" fill-rule="evenodd" d="M11.999 17.999h-8a4 4 0 0 1-4-4v-4a4 4 0 0 1 4-4v-2a4 4 0 0 1 8 0v2a4 4 0 0 1 4 4v4a4 4 0 0 1-4 4zm-2-14a2 2 0 1 0-4 0v2h4v-2zm4 6a2 2 0 0 0-2-2h-8a2 2 0 0 0-2 2v4a2 2 0 0 0 2 2h8a2 2 0 0 0 2-2v-4zm-5.999 4a2 2 0 1 1-.001-4 2 2 0 0 1 .001 4z"></path></svg><svg id="maestro" viewBox="-8 -8 46 35" width="46" height="35" y="2436"><style>.axst0{fill:#96a0aa}</style><path d="M26.9 8.7c-.7 0-1 .8-1 1.5-.1.4.2.9.6 1h.1c.5-.1.9-.5 1-1.1v-.5c.1-.4-.2-.8-.6-.9h-.1zm-12.5.5c0-.3-.2-.5-.5-.5h-.1c-.4 0-.8.3-.8.8h1.4v-.3zm-5.9 1.6c0 .2.2.4.4.4H9c.6 0 1-.5.9-1.1h-.3c-.7 0-1.1.3-1.1.7z" class="axst0"></path><path d="M28 0H2C.9 0 0 .9 0 2v15c0 1.1.9 2 2 2h26c1.1 0 2-.9 2-2V2c0-1.1-.9-2-2-2zM5.4 12.1L6.1 8l-1.8 4.1H3.2L3 8l-.8 4H1l1-5.3h2l.1 3.3 1.4-3.3h2.1l-1 5.3-1.2.1zm5.9-2.3l-.3 1.5v.8H9.8v-.4c-.4.3-.8.5-1.3.4-.6 0-1.2-.4-1.2-1V11c0-1 .8-1.7 2.3-1.7h.5V9c0-.3-.2-.4-.8-.4-.4 0-.7 0-1.1.1l-.2.1h-.1l.2-.9c.5-.1 1-.2 1.5-.2 1.1 0 1.7.4 1.7 1.3v.8zm2.7 1.4c.5 0 .9-.1 1.3-.3l-.2 1.1c-.4.1-.9.2-1.3.2-1.5 0-2.2-.7-2.2-1.9-.1-1.3.8-2.4 2.1-2.5h.1c.8-.1 1.6.5 1.7 1.3v.2c0 .4-.1.7-.2 1.1h-2.6v.1c.2.5.5.7 1.3.7zm4.9-2.4c-.3 0-.6-.1-.9-.1-.4 0-.6.1-.6.3s.1.2.6.5c.6.1 1 .6.9 1.2 0 1-.6 1.4-2 1.4h-1.4l.2-1c.4.1.8.2 1.2.2.5 0 .8-.1.8-.4s-.1-.3-.6-.5c-.6-.1-1-.6-1-1.2 0-.8.5-1.5 2-1.5.4 0 .8 0 1.2.1l-.4 1zm2.1 2.3h.4l-.2 1c-.3.1-.6.1-.9.1-.5.1-.9-.3-1-.7v-.6l.1-.4.1-.3.6-3.3h1.3l-.2 1h.7L21.7 9H21l-.3 1.8v.2c-.2 0 0 .1.3.1zM24.1 9c-.6 0-.8.5-1.3 3.1h-1.3l.8-4.3h1.2l-.1.7c.2-.4.7-.7 1.1-.7h.3L24.5 9h-.4zm4.9 1.1c-.1 1.2-1.2 2.2-2.4 2.1h-.1c-1 .1-1.9-.6-2.1-1.6v-.4c-.1-1.3.9-2.5 2.3-2.6h.3c1-.1 2 .6 2.1 1.6v.3c-.1.3-.1.5-.1.6z" class="axst0"></path></svg><svg width="44" height="38" viewBox="-8 -8 44 38" id="maestro-color" y="2471"><path d="M7.523 19.535c-.261 0-.609.09-.785.442-.176-.266-.437-.442-.789-.442-.261 0-.523.09-.699.352v-.262h-.438v2.285h.524v-1.316c0-.442.266-.617.527-.617.348 0 .524.175.524.617v1.316h.527v-1.316c0-.442.262-.617.524-.617.351 0 .523.175.523.617v1.316h.527v-1.406c0-.617-.351-.969-.965-.969zm8.051.969h-.261c-.176 0-.352-.09-.352-.266 0-.175.176-.261.437-.261.266 0 .614.085.704.175l.171-.441c-.261-.176-.609-.262-.96-.262-.614 0-.961.262-.961.703 0 .352.261.618.785.703h.261c.266 0 .438.09.438.266 0 .176-.172.262-.524.262-.351 0-.613-.086-.789-.262l-.261.352c.261.175.613.261.965.261.699 0 1.046-.351 1.046-.789.09-.175-.171-.441-.699-.441zm-4.812-.703c-.176-.176-.438-.352-.7-.352-.613 0-1.136.528-1.136 1.23 0 .704.523 1.231 1.136 1.231.352 0 .524-.086.7-.351v.265h.527v-2.289h-.527zm-.614 1.672a.691.691 0 0 1-.699-.703c0-.356.262-.707.7-.707.437 0 .703.351.703.707 0 .351-.352.703-.704.703zm2.715-1.938c-.699 0-1.136.527-1.136 1.235 0 .703.523 1.23 1.136 1.23.348 0 .7-.09.961-.352l-.261-.351c-.176.176-.438.262-.7.262-.351 0-.613-.176-.699-.528H14v-.176c0-.878-.438-1.32-1.137-1.32zm-.613.969c.086-.352.262-.527.613-.527.348 0 .524.175.614.527zm5.773.969c-.261 0-.347-.176-.347-.352v-1.058h.785v-.438h-.785v-.703h-.528v.703h-.437v.438h.437v1.058c0 .527.176.879.79.879.175 0 .437-.09.613-.176l-.176-.441c-.086 0-.262.09-.352.09zm1.579-1.672v-.266h-.528v2.29h.528v-1.321c0-.352.171-.617.523-.617.086 0 .176 0 .352.09l.171-.442c-.085 0-.261-.086-.347-.086-.352.086-.528.176-.7.352zm3.5.437a1.252 1.252 0 0 0-.266-.351c-.086-.086-.262-.176-.348-.262-.175-.09-.351-.09-.527-.09-.172 0-.348 0-.523.09-.176.086-.262.176-.352.262-.086.09-.172.265-.262.351-.086.176-.086.356-.086.442 0 .09 0 .351.086.441.09.176.176.262.262.352.09.086.266.175.352.261.175.09.351.09.523.09.176 0 .352 0 .527-.09.176-.086.262-.175.348-.261.09-.09.176-.266.266-.352.085-.176.085-.351.085-.441 0-.086 0-.266-.085-.442zm-.438.793c0 .09-.09.176-.176.266-.09.086-.175.086-.261.176-.09 0-.176.086-.266.086-.086 0-.172 0-.262-.086-.086 0-.176-.09-.262-.176-.085-.09-.085-.176-.175-.266 0-.086-.086-.176-.086-.261 0-.09 0-.176.086-.266 0-.09.09-.176.175-.266.086-.086.176-.086.262-.175.09 0 .176-.086.262-.086.09 0 .176 0 .266.085.085 0 .171.09.261.176.086.09.086.176.176.266 0 .09.086.176.086.266 0 .085-.086.175-.086.261zm0 0"></path><path d="M10.238 1.938h7.614v13.636h-7.614zm0 0" fill="#7773b5"></path><path d="M10.676 8.8A8.69 8.69 0 0 1 14 1.938C12.512.794 10.676.09 8.664.09 3.852.09 0 3.96 0 8.8c0 4.84 3.852 8.712 8.664 8.712 2.012 0 3.848-.703 5.336-1.848-2.012-1.672-3.324-4.137-3.324-6.863zm0 0" fill="#e91d25"></path><path d="M28 8.8c0 4.84-3.852 8.712-8.664 8.712-2.012 0-3.848-.703-5.336-1.848a8.696 8.696 0 0 0 3.324-6.863A8.69 8.69 0 0 0 14 1.937C15.488.794 17.324.09 19.336.09 24.148.09 28 3.96 28 8.8zm0 0" fill="#12a0db"></path></svg><svg viewBox="-8 -8 45 38.5" width="45" height="38.5" id="mastercard-color" y="2509"><path d="M5.3 22.4v-1.5c0-.6-.4-.9-.9-.9-.3 0-.6.1-.8.4-.3-.3-.5-.4-.9-.4-.2 0-.5.1-.7.4V20h-.5v2.4H2v-1.3c0-.4.2-.6.6-.6.3 0 .5.2.5.6v1.3h.5v-1.3c0-.4.2-.6.6-.6.4 0 .5.2.5.6v1.3h.6zm7.7-2.3h-.9v-.7h-.5v.7h-.5v.5h.5v1.1c0 .6.2.9.8.9.2 0 .5-.1.6-.2v-.5c-.2.1-.4.1-.5.1-.3 0-.3-.2-.3-.4v-1.1h.8v-.4zm4.4-.1c-.3 0-.5.1-.6.4v-.3h-.5v2.4h.5v-1.3c0-.4.2-.6.5-.6.1 0 .2 0 .3.1l.2-.5c-.1-.2-.3-.2-.4-.2zm-6.6.2c-.2-.2-.6-.2-1-.2-.6 0-1 .3-1 .8 0 .4.3.6.8.7h.2c.3 0 .4.1.4.2 0 .2-.2.3-.5.3-.4 0-.6-.1-.8-.2l-.2.4c.3.2.6.3 1 .3.7 0 1.1-.3 1.1-.8 0-.4-.3-.6-.8-.7h-.2c-.2 0-.4-.1-.4-.2 0-.2.2-.3.5-.3s.6.1.7.2l.2-.5zm13.8-.2c-.3 0-.5.1-.6.4v-.3h-.5v2.4h.5v-1.3c0-.4.2-.6.5-.6.1 0 .2 0 .3.1l.2-.5c-.1-.2-.3-.2-.4-.2zM18 21.2c0 .7.5 1.2 1.3 1.2.4 0 .6-.1.9-.3l-.2-.4c-.2.1-.4.2-.6.2-.4 0-.7-.3-.7-.8s.3-.8.7-.8c.2 0 .4.1.6.2l.2-.4c-.3-.2-.5-.3-.9-.3-.8.2-1.3.7-1.3 1.4zm4.8 0V20h-.5v.3c-.2-.2-.4-.4-.7-.4-.7 0-1.2.5-1.2 1.2s.5 1.2 1.2 1.2c.3 0 .6-.1.7-.4v.3h.5v-1zm-1.9 0c0-.4.3-.8.7-.8.4 0 .7.3.7.8s-.3.8-.7.8c-.5 0-.7-.3-.7-.8zM14.6 20c-.7 0-1.2.5-1.2 1.2 0 .8.5 1.2 1.2 1.2.4 0 .7-.1 1-.3l-.2-.4c-.2.2-.5.2-.7.2-.3 0-.6-.2-.7-.6h1.8v-.2c-.1-.6-.5-1.1-1.2-1.1zm0 .4c.3 0 .5.2.6.6H14c0-.3.3-.6.6-.6zm13 .8v-2.1h-.5v1.2c-.2-.2-.4-.4-.7-.4-.7 0-1.2.5-1.2 1.2s.5 1.2 1.2 1.2c.3 0 .6-.1.7-.4v.3h.5v-1zm-1.9 0c0-.4.3-.8.7-.8.4 0 .7.3.7.8s-.3.8-.7.8c-.5 0-.7-.3-.7-.8zm-17.5 0V20h-.5v.3c-.2-.2-.4-.3-.8-.3-.7 0-1.2.5-1.2 1.2s.5 1.2 1.2 1.2c.3 0 .6-.1.7-.4v.3h.5v-1.1h.1zm-1.9 0c0-.4.3-.8.7-.8.4 0 .7.3.7.8s-.3.8-.7.8c-.5 0-.7-.3-.7-.8z"></path><path d="M10.6 1.9h7.8V16h-7.8V1.9z" fill="#f16022"></path><path d="M11.1 9c0-2.9 1.3-5.4 3.4-7.1C13 .7 11 0 9 0 4 0 0 4 0 9s4 9 9 9c2.1 0 4-.7 5.5-1.9-2.1-1.7-3.4-4.3-3.4-7.1z" fill="#e91d25"></path><path d="M29 9c0 5-4 9-9 9-2.1 0-4-.7-5.5-1.9 2.1-1.6 3.4-4.2 3.4-7.1s-1.3-5.4-3.4-7.1C16 .7 18 0 20 0c5 0 9 4 9 9z" fill="#f69e1e"></path></svg><svg id="mastercard-secure" viewBox="-8 -8 62 30" width="62" height="30" y="2548"><style>.ayst0{fill:#96a0aa}</style><path d="M3.9 11.1l-.6-.3c-.2-.1-.4-.1-.7-.1l-.4-.1c-.2 0-.3-.1-.5-.1-.1 0-.3-.1-.4-.1-.1 0-.2-.1-.2-.2.1-.1 0-.2 0-.3 0-.1 0-.2.1-.4l.3-.3c.1-.1.3-.1.4-.2.2 0 .3-.1.5-.1.3 0 .6 0 .8.1.3.3.5.4.8.5l.5-.7c-.4-.2-.7-.3-1-.4-.3-.2-.7-.2-1.1-.2-.3 0-.6 0-.9.1-.2.1-.4.2-.7.4-.2.1-.3.3-.4.5-.1.2-.2.5-.2.7 0 .2 0 .5.1.7.1.2.2.3.4.5.2.1.3.2.5.3.2.1.4.1.6.1l.4.1c.3 0 .6.1.9.3.2.1.3.3.3.5 0 .1 0 .2-.1.3L3 13c.1 0-.1 0-.2.1-.2 0-.4.1-.5.1h-.5l-.9-.3c-.1-.1-.2-.1-.3-.2l-.6.5c.1.1.3.2.5.3.2.1.4.2.6.2.2.1.4.1.6.1h.6c.3 0 .6 0 .9-.1.3-.1.5-.2.7-.3.1 0 .3-.2.4-.4.1-.2.2-.5.2-.8 0-.2 0-.5-.2-.7-.1-.1-.2-.3-.4-.4zm20.5-.6c-.2-.2-.4-.3-.6-.4-.2-.1-.5-.1-.7-.1-.3 0-.5 0-.8.1-.2.1-.4.2-.6.4-.2.2-.3.4-.4.6-.1.3-.1.5-.1.8 0 .3 0 .6.1.8.1.2.2.5.4.6.2.2.4.3.6.4.3.1.5.1.8.1.3 0 .6 0 .8-.1.3-.1.5-.2.7-.4l-.4-.6c-.2.1-.3.2-.5.3-.2.1-.4.1-.6.1-.1 0-.3 0-.4-.1-.1 0-.2-.1-.3-.2l-.3-.3c-.1-.1-.1-.3-.1-.4h2.8v-.4c0-.3 0-.6-.1-.8 0 0-.2-.2-.3-.4zM22 11.6c0-.1.1-.3.1-.4 0-.1.1-.2.2-.3.1-.1.2-.2.3-.2.1 0 .3-.1.4-.1.2 0 .5.1.7.2.2.2.3.4.3.7l-2 .1zm17.2-1.1c-.3-.4-.7-.6-1.2-.6s-1 .2-1.4.6c-.2.2-.3.4-.4.6-.2.5-.2 1.1 0 1.6.1.2.2.5.4.6.4.5.9.7 1.4.7.2 0 .5 0 .7-.2.2-.1.4-.2.5-.4v.5h.8V8.1h-.8v2.4zm0 2c-.1.1-.1.3-.2.4-.1.1-.2.2-.4.3-.3.1-.7.1-1 0-.1-.1-.3-.2-.4-.3-.1-.1-.2-.3-.2-.4-.1-.3-.1-.6 0-1 .1-.1.1-.3.2-.4.1-.1.2-.2.4-.3.3-.1.7-.1 1 0 .1.1.3.2.4.3.1.1.2.2.2.4.1.3.1.7 0 1zM20.3 10c-.2 0-.4 0-.6.1-.2.1-.4.2-.5.4v-.4h-.8v3.8h.8v-2.1c0-.1 0-.3.1-.4 0-.1.1-.2.2-.3.1-.1.2-.2.3-.2.1 0 .2-.1.4-.1h.3c.1 0 .2.1.3.1l.2-.8c-.1 0-.2-.1-.3-.1h-.4zm6.8-.4c.2-.2.4-.3.6-.4.3-.1.5-.2.8-.1.3 0 .6.1.9.2.3.1.5.3.7.6l.7-.5c-.1-.2-.2-.3-.4-.5-.2-.1-.3-.3-.5-.4-.2-.1-.4-.2-.6-.2-.2-.1-.5-.1-.7-.1-.4 0-.8.1-1.2.2-.7.3-1.3.8-1.5 1.5-.3.7-.3 1.6 0 2.3.3.7.8 1.3 1.5 1.5.6.2 1.3.3 1.9.1.2 0 .4-.1.6-.2.2-.1.4-.2.5-.4.2-.1.3-.3.4-.5l-.8-.4c-.4.5-.9.8-1.6.8-.3 0-.5 0-.8-.1-.2-.1-.4-.2-.6-.4-.2-.2-.3-.4-.4-.6-.2-.5-.2-1.1 0-1.7.1-.3.3-.5.5-.7zm-10.7 2.6c0 .2 0 .3-.1.5 0 .1-.1.2-.2.3-.1.1-.2.1-.3.2-.2.1-.5.1-.7 0-.1 0-.2-.1-.3-.2-.1-.1-.2-.2-.2-.3 0-.2-.1-.3-.1-.5v-2.1h-.8v2.2c0 .3 0 .5.2.8.1.2.2.4.4.5l.6.3c.4.1.9.1 1.3 0l.6-.3c.2-.1.3-.3.4-.5.1-.2.2-.5.2-.8v-2.2h-.9c-.1 0-.1 2.1-.1 2.1zm-8.1-1.7c-.2-.2-.4-.3-.6-.4-.2-.1-.4-.1-.7-.1-.3 0-.5 0-.8.1-.2.1-.4.2-.6.4-.2.2-.3.4-.4.6-.1.3-.1.5-.1.8 0 .3 0 .6.1.8.1.2.2.5.4.6.2.2.4.3.6.4.3.2.6.3.9.3.3 0 .6 0 .8-.1.3-.1.5-.2.7-.4l-.4-.6c-.2.1-.3.2-.5.3-.2.1-.4.1-.6.1-.1 0-.3 0-.4-.1-.1 0-.2-.1-.3-.2l-.3-.3c0-.1-.1-.3-.1-.4h2.8v-.4c0-.3 0-.6-.1-.8-.1-.2-.2-.4-.4-.6zM6 11.6c0-.1.1-.3.1-.4 0-.1.1-.2.2-.3.1-.1.2-.2.3-.2.1 0 .3-.1.4-.1.2 0 .5.1.7.2.2.3.3.6.3.8H6zm4.6-.5c.1-.1.2-.2.4-.3.1-.1.3-.1.4-.1.2 0 .3 0 .5.1s.3.2.4.3l.5-.6c-.2-.2-.4-.4-.6-.5h-.7c-.3 0-.6 0-.8.2-.5.2-.9.6-1.1 1.1-.2.5-.2 1.1 0 1.6s.6.9 1 1.1c.3.1.5.2.8.2.3 0 .5-.1.8-.2.2-.1.5-.3.6-.5l-.5-.6c-.1.1-.3.2-.4.3-.2.1-.3.1-.5.1s-.3 0-.4-.1c-.1-.1-.3-.1-.4-.3-.1-.1-.2-.2-.2-.4-.1-.3-.1-.7 0-1 .1-.2.1-.3.2-.4zm34.7 2.7l-.1-.2h-.1v.2h.2l-.1-.1.1.1.1-.1-.1.1.1.1v-.2h-.1c.1 0 0 .1 0 .1zm-1.1-3.3c-.2-.2-.4-.3-.6-.4-.2-.1-.5-.1-.7-.1-.3 0-.5 0-.8.1-.2.1-.4.2-.6.4-.2.2-.3.4-.4.6-.1.3-.1.5-.1.8 0 .3 0 .6.1.8.1.2.2.5.4.6.2.2.4.3.6.4.3.1.5.1.8.1.3 0 .6 0 .8-.1.3-.1.5-.2.7-.4l-.4-.6c-.2.1-.3.2-.5.3-.2.1-.4.1-.6.1-.1 0-.3 0-.4-.1-.1 0-.2-.1-.3-.2l-.3-.3c-.1-.1-.1-.3-.1-.4h2.8v-.4c0-.3 0-.6-.1-.8 0 0-.2-.2-.3-.4zm-2.4 1.1c0-.1.1-.3.1-.4 0-.1.1-.2.2-.3.1-.1.2-.2.3-.2.1 0 .3-.1.4-.1.2 0 .5.1.7.2.2.2.3.4.3.7l-2 .1zm-6.9-1.1c-.2-.2-.4-.3-.7-.4-.5-.2-1.1-.2-1.6 0-.2.1-.5.2-.7.4-.2.2-.3.4-.4.6-.2.5-.2 1.1 0 1.6.1.2.2.5.4.6.2.2.4.3.7.4.5.2 1.1.2 1.6 0 .2-.1.5-.2.7-.4.2-.2.3-.4.4-.6.2-.5.2-1.1 0-1.6 0-.2-.2-.4-.4-.6zm-.3 2c-.1.3-.3.5-.6.6-.3.1-.6.1-1 0-.1-.1-.3-.1-.4-.3-.1-.1-.2-.2-.3-.4-.1-.3-.1-.7 0-1 .1-.1.1-.3.3-.4.1-.1.2-.2.4-.3.3-.1.6-.1 1 0 .1.1.3.1.4.3.1.1.2.2.3.4 0 .4 0 .8-.1 1.1zM45 13.7l.1.2v-.2h.1-.2zM43.8 2.5c-.1-.2-.3-.3-.5-.4-.2-.1-.5-.2-.7-.2-.5 0-1 .2-1.4.6-.2.2-.3.4-.4.7-.1.3-.2.6-.2.8 0 .3 0 .6.2.8.1.2.2.5.4.7.4.4.9.6 1.4.6.3 0 .5 0 .7-.2.2-.1.4-.2.5-.4V6h.9V0h-.9v2.5zm0 2c-.1.2-.1.3-.2.4-.1.1-.2.2-.4.3-.3.1-.7.1-1 0-.2-.1-.3-.2-.4-.3-.1-.1-.2-.3-.2-.4-.1-.3-.1-.7 0-1 .1-.2.1-.3.2-.4.1-.1.2-.2.4-.3.3-.1.7-.1 1 0 .1.1.3.2.4.3.1.1.2.3.2.4.1.3.1.7 0 1zM46 5.8c-.1-.1-.1-.1 0 0l-.1-.1h-.2c-.1 0-.1.1-.1.1V6c0 .1.1.2.2.2h.1s.1 0 .1-.1l.1-.1c-.1-.1-.1-.2-.1-.2zm-.1.1c0 .1 0 .1 0 0-.1.1-.1.1-.1.2h-.3c-.1-.1-.1-.2 0-.3h.2l.1.1c.1-.1.1 0 .1 0zM8.1 5.5c.4.4.9.6 1.5.6.3 0 .5 0 .7-.2.2-.1.4-.2.5-.4V6h.9V2h-.9v.5c-.1-.2-.3-.3-.5-.4-.2-.1-.5-.2-.7-.2-.5 0-1 .2-1.4.6-.2.2-.4.4-.5.7-.1.2-.1.5-.1.8 0 .3 0 .6.2.8 0 .3.2.5.3.7zm.5-2c.1-.2.1-.3.2-.4.1-.1.2-.2.4-.3.3-.1.7-.1 1 0 .1.1.3.2.4.3.1.1.2.3.2.4.1.3.1.7 0 1-.1.2-.1.3-.2.4-.1.1-.2.2-.4.3-.3.1-.7.1-1 0-.2-.1-.3-.2-.4-.3-.1-.1-.2-.3-.3-.4-.1-.3-.1-.7.1-1zM1.4 1.2l1.7 4.2h1l1.7-4.2V6h.9V.2H5.3L3.6 4.3 1.9.2H.5V6h.9V1.2zm21.1 4.9c.3 0 .6 0 .9-.1.3-.1.5-.2.8-.4l-.4-.6-.6.3c-.2.1-.4.1-.6.1-.1 0-.3 0-.4-.1-.1 0-.2-.1-.4-.2l-.3-.3c-.1-.1-.1-.3-.2-.5h2.9v-.4c0-.3 0-.6-.1-.8-.1-.2-.2-.5-.4-.7-.2-.2-.4-.3-.6-.4-.1 0-.4-.1-.6-.1-.3 0-.5 0-.8.2-.2.1-.5.2-.6.4-.2.2-.3.4-.4.7-.1.3-.1.6-.1.9 0 .3 0 .6.1.9.1.2.2.5.4.6.2.2.4.3.6.4.3 0 .5.1.8.1zm-1-2.8c0-.1.1-.2.2-.3.1-.1.2-.2.3-.2.1 0 .3-.1.4-.1.3 0 .5.1.7.3.2.2.3.4.4.7h-2.1c0-.2 0-.3.1-.4zm-7.2 2.8c.3 0 .5 0 .8-.1l.6-.3c.1-.1.3-.2.4-.4.1-.2.1-.3.1-.5 0-.3-.1-.6-.4-.8-.3-.2-.7-.3-1-.4l-.4-.1h-.3c-.1 0-.1 0-.2-.1-.1 0-.1-.1-.1-.1 0-.1-.1-.1-.1-.2s.1-.3.2-.3c.2-.1.4-.1.5-.1h.4c.1 0 .2 0 .3.1.1 0 .2.1.3.1.1 0 .2.1.2.1l.4-.7c-.2-.1-.5-.2-.7-.3-.3-.1-.6-.1-.9-.1-.2 0-.5 0-.7.1-.2.1-.4.1-.5.3-.1.1-.3.2-.3.4-.1.2-.1.3-.1.5 0 .3.1.6.3.8.3.2.6.4 1 .4l.4.1c.2 0 .4.1.5.2.1.1.2.2.2.3 0 .2-.1.3-.2.4-.2.1-.4.1-.7.1h-.4c-.1 0-.2-.1-.4-.1-.1 0-.2-.1-.3-.1 0-.3-.1-.3-.2-.4l-.4.7c.1.1.3.2.5.3.1 0 .3.1.4.1.1 0 .3.1.4.1h.4zm17.5-.6l-.5-.6c-.2.1-.3.2-.5.3-.2.1-.4.1-.5.1-.2 0-.3 0-.5-.1-.1-.1-.3-.1-.4-.3-.1-.1-.2-.3-.2-.4-.1-.3-.1-.7 0-1 .1-.2.1-.3.2-.4.1-.1.2-.2.4-.3.1-.1.3-.1.5-.1s.4 0 .5.1c.2.1.3.2.5.3l.6-.6c-.2-.2-.4-.4-.7-.5-.3-.1-.5-.2-.8-.2-.3 0-.6 0-.9.2-.5.2-.9.6-1.1 1.1-.1.3-.2.5-.1.8 0 .3 0 .6.1.8.2.5.6.9 1.1 1.1.2.2.5.3.8.3.3 0 .6-.1.8-.2.3-.1.5-.2.7-.4zm4.6.5V2h-.9v.5c-.1-.2-.3-.3-.5-.4-.2-.1-.5-.2-.7-.2-.5 0-1 .2-1.4.6-.2.2-.3.4-.4.7-.1.3-.2.6-.2.8 0 .3 0 .6.2.8.1.2.2.5.4.7.4.4.9.6 1.4.6.3 0 .5 0 .7-.2.2-.1.4-.2.5-.4V6h.9zm-.9-1.5c-.1.2-.1.3-.2.4-.1.1-.2.2-.4.3-.3.1-.7.1-1 0-.1-.1-.3-.2-.4-.3-.1-.1-.2-.3-.2-.4-.1-.3-.1-.7 0-1 .1-.2.1-.3.2-.4.1-.1.2-.2.4-.3.3-.1.7-.1 1 0 .1.1.3.2.4.3.1.1.2.3.2.4.2.3.2.7 0 1zm-9.3-.7c0-.2 0-.3.1-.5 0-.1.1-.2.2-.3.1-.1.2-.2.3-.2.1 0 .3-.1.4-.1h.3c.1 0 .2.1.3.1L28 2c-.1 0-.2-.1-.3-.1h-.4c-.2 0-.5 0-.7.1-.2.1-.4.2-.5.4V2h-.9v4h.9l.1-2.2z" class="ayst0"></path><path d="M45.8 5.9s0-.1 0 0v-.1h-.2V6h.1v-.1l.1.1h.1l-.1-.1zm-.1 0c0-.1.1-.1 0 0 .1-.1.1 0 .1 0 0-.1 0-.1-.1 0 .1-.1 0-.1 0 0zM19.5 6c.2-.1.4-.2.5-.3l-.3-.7c-.1.1-.3.1-.4.2-.1.1-.3.1-.4.1h-.2c-.1 0-.1-.1-.2-.1-.1-.2-.2-.2-.2-.3 0-.1-.1-.2 0-.3V2.8h1.5V2h-1.5V.8h-.9V2h-.8v.8h.8v1.7c0 .5.1.9.4 1.2.3.3.7.4 1.1.4.2 0 .4 0 .6-.1zm20.2-4.1c-.2 0-.5 0-.7.1-.2.1-.4.2-.5.4V2h-.9v4h.9V3.8c0-.2 0-.3.1-.5 0-.1.1-.2.2-.3.1-.1.2-.2.3-.2.1 0 .3-.1.4-.1h.3c.1 0 .2.1.3.1l.3-.8c-.1 0-.2-.1-.3-.1h-.4z" class="ayst0"></path></svg><svg width="34" height="30" viewBox="-8 -8 34 30" id="menu" y="2578"><path fill-rule="evenodd" fill="#1d2024" d="M16.999 8h-16a1 1 0 0 1 0-2h16a1 1 0 1 1 0 2zm0-6h-16a1 1 0 0 1 0-2h16a1 1 0 1 1 0 2zm-16 9.999h16a1 1 0 1 1 0 2h-16a1 1 0 1 1 0-2z"></path></svg><svg width="32" height="32" viewBox="-8 -8 32 32" id="menu-close" y="2608"><path fill-rule="evenodd" fill="#1d2024" d="M9.39 7.999l6.324 6.324a.984.984 0 0 1-1.39 1.391L7.999 9.39l-6.324 6.324a.983.983 0 1 1-1.39-1.391l6.324-6.324L.285 1.676A.984.984 0 0 1 1.675.285l6.324 6.324L14.324.285a.983.983 0 1 1 1.39 1.391L9.39 7.999z"></path></svg><svg width="32" height="32" viewBox="-8 -8 32 32" id="minus" y="2640"><path fill-rule="evenodd" fill="none" d="M0 0h16v16H0V0z"></path><path fill-rule="evenodd" fill="#1d2024" d="M1 6.999h14A1 1 0 1 1 15 9H1a1 1 0 0 1 0-2.001z"></path></svg><svg viewBox="-8 -8 60 40" width="60" height="40" id="norton-color" y="2672"><path fill="#a6a8ab" d="M36.6 3.2H8C3.9 3.2.6 6.5.6 10.6S4 18 8 18h28.5c4.1 0 7.4-3.3 7.4-7.4s-3.2-7.4-7.3-7.4zm0 14.3H8c-3.8 0-6.8-3.1-6.8-6.8 0-3.8 3.1-6.8 6.8-6.8h28.5c3.8 0 6.8 3.1 6.8 6.8.1 3.7-3 6.8-6.7 6.8zm-23 4.3v-.4h-.4v1.9h.4v-.7c0-.5.3-.8.7-.8v-.5c-.4 0-.6.2-.7.5zm-7.1-.5c-.6 0-1 .5-1 1s.4 1 1 1 1-.5 1-1-.4-1-1-1zm.6 1c0 .3-.2.6-.6.6-.3 0-.6-.3-.6-.6s.2-.6.6-.6c.3 0 .6.3.6.6zm8.3-1c-.5 0-.9.4-.9 1s.4 1 1 1c.4 0 .6-.1.8-.4l-.3-.2c-.2.1-.3.2-.5.2-.3 0-.5-.2-.6-.5h1.4v-.1c.1-.5-.3-1-.9-1zm-.5.9c0-.3.2-.5.5-.5s.5.2.5.5h-1zm-10.7-.9c-.3 0-.5.2-.6.4v-.3h-.5v2.5h.4V23c.1.2.3.3.6.3.5 0 .9-.4.9-1 .1-.6-.3-1-.8-1zm.4 1c0 .4-.2.6-.5.6s-.6-.2-.6-.6c0-.4.3-.6.6-.6s.5.3.5.6zm5.2.4l-.4-1.3H9l-.4 1.3-.4-1.3h-.5l.6 1.9h.4l.4-1.3.4 1.3h.5l.6-1.9h-.4l-.4 1.3zm2-1.4c-.5 0-.9.4-.9 1s.4 1 1 1c.4 0 .6-.1.8-.4l-.3-.2c-.2.2-.4.3-.6.3-.3 0-.5-.2-.6-.5h1.4v-.1c.1-.6-.2-1.1-.8-1.1zm-.5.9c0-.3.2-.5.5-.5s.5.2.5.5h-1zm9.8-8.3h1.1v-.5h-1.1v-.9h1.4V12h-2v3.3h2.1v-.5h-1.5v-.9zm7.4.3c0 .5-.1.8-.6.8s-.6-.3-.6-.8V12h-.6v2.1c0 .8.3 1.3 1.2 1.3.9 0 1.2-.5 1.2-1.3V12h-.6v2.2zm5.6-.3h1.1v-.5h-1.1v-.9h1.4V12h-2v3.3h2.1v-.5h-1.5v-.9zm-1.6-.9c0-.7-.5-1-1.2-1h-1.1v3.3h.6V14h.5l.6 1.4h.6l-.7-1.5c.4-.1.7-.4.7-.9zm-1.2.5h-.5v-1h.5c.4 0 .6.1.6.5.1.4-.2.5-.6.5zm6.1-1.5h-.8v3.3h.9c1 0 1.6-.6 1.6-1.7-.1-1-.6-1.6-1.7-1.6zm0 2.9h-.2v-2.4h.3c.8 0 1 .4 1 1.2-.1.9-.3 1.2-1.1 1.2zm-18.8-1.5c-.4-.1-.7-.2-.7-.5s.2-.4.5-.4.5.1.7.2l.2-.4c-.2-.1-.5-.2-.9-.2-.6 0-1.1.3-1.1.9 0 .6.4.8.9 1 .5.2.8.3.8.6s-.2.5-.6.5c-.4 0-.7-.1-.9-.3l-.3.2c.2.2.6.4 1.2.4.7 0 1.2-.4 1.2-1s-.5-.8-1-1zm6.2 1.5c-.5 0-.8-.4-.8-1.2 0-.8.3-1.3.8-1.3.3 0 .4.1.6.3l.3-.4c-.2-.3-.6-.4-1-.4-.9 0-1.4.7-1.4 1.7s.4 1.7 1.4 1.7c.5 0 .8-.2 1-.5l-.3-.4c-.1.4-.3.5-.6.5zm-3.4 6.4c-.3 0-.5.2-.6.4v-1.1h-.4v2.6h.4V23c.1.2.3.3.6.3.5 0 .9-.4.9-1s-.4-1-.9-1zm.5 1c0 .4-.2.6-.5.6s-.6-.2-.6-.6c0-.4.3-.6.6-.6.2 0 .5.3.5.6zm1.6.5l-.5-1.4h-.5l.8 1.9c-.1.2-.1.2-.3.2-.1 0-.2 0-.3-.1l-.1.3c.1.1.3.1.5.1.3 0 .5-.1.6-.5l.8-2H24l-.5 1.5zm-5.3-1.1c-.1-.2-.3-.3-.7-.3-.5 0-.9.4-.9 1s.4 1 .9 1c.3 0 .5-.2.7-.4v.3h.4v-2.6h-.4v1zm.1.6c0 .4-.3.6-.6.6s-.6-.2-.6-.6c0-.4.3-.6.6-.6s.6.3.6.6z"></path><path fill="#ffc10e" d="M8 2.6c-4.4 0-8 3.6-8 8s3.6 8 8 8 8-3.6 8-8-3.6-8-8-8zm3.9 11.9c-1 1-2.4 1.6-3.9 1.6s-2.8-.6-3.9-1.6c-1-1-1.6-2.4-1.6-3.9s.6-2.8 1.6-3.9c1-1 2.4-1.6 3.9-1.6s2.8.6 3.9 1.6c1 1 1.6 2.4 1.6 3.9s-.6 2.9-1.6 3.9zM16.7 2h.6v-.6h-.6V2zm0-1.9v.6h.6V.1h-.6zM15.6 2H15v.6h.6V2z"></path><path d="M33.2 6.5c-1.1 0-2 .9-2 2s.9 2 2 2 2-.9 2-2-.9-2-2-2zm0 3c-.6 0-1-.5-1-1 0-.6.5-1 1-1 .6 0 1 .5 1 1s-.5 1-1 1zm-9.2-3c-1.1 0-2 .9-2 2s.9 2 2 2 2-.9 2-2-.9-2-2-2zm0 3c-.6 0-1-.5-1-1 0-.6.5-1 1-1 .6 0 1 .5 1 1s-.5 1-1 1zm3.4-.8c0-.8.5-1.4 1.1-1.4h.6v1.9c0 .9.5 1.2 1.2 1.2.4 0 .7-.1.9-.1l-.2-.8c-.1 0-.3.1-.4.1-.3 0-.4-.1-.4-.4V7.3h.8v-.8h-.8v-1h-.9l-.2 1.1h-.7c-.5 0-.9.3-1.2.8l-.3-.8h-.7v3.8h1.1V8.7zm9.1-.9l-.1-.2.1.2c.2-.2.4-.4.7-.4.3 0 .6.2.6.5v2.5h1.1V7.9c0-.7-.4-1.4-1.3-1.4-.5 0-1 .3-1.3.7l-.2-.6h-.7v3.8h1.1V7.8zm-16 .7l-1.7-3.3h-1.3v5.2h1V6.8l1.8 3.6h1.1V5.2h-1v3.3zm-4.9-5.3H15v.6h.6v-.6h.7v-.6h-.7v.6zm-2.4-.6v.6h.6v-.6h-.6zm2.9-1.2h.6V.7h-.6v.7zM15 2h1.1v-.6H15V2zm0 0h-.6v1.2h.6V2zm-.6 2.4h-.6v-.6h.6v-.6h-.6v.6h-1v.4h-.5v.5h.6v.6h-.6v-.6h-.6v.9h-.6v.6h-.4v.6h-.4c-.5.7-1.7 2.9-2.1 3.9-1.3-1.9-2.3-2.6-3.1-2.9-.4-.1-1 .3-.2 1.1 1.7 1.8 2.2 3.3 2.7 4.5.3.6 1.5.7 1.7.1.5-1.4 1.2-2.9 2.1-4.2v-.6h.5v-.6h.5v-.6h.6v-.7h-.6v-.6h.6v.6h.6v-.6h.4v-.7h.5V5h.5V3.8h-.6v.6zm18.4 17.5c0-.1 0-.2-.1-.3-.1-.1-.2-.2-.3-.2h-.3c-.1 0-.3.1-.4.2v-.1c-.1-.1-.2-.2-.3-.2h-.3c-.1 0-.3.1-.4.2 0-.1-.1-.2-.1-.3h-.2v1.9h.5v-1.3c.1 0 .1-.1.2-.1h.2c.1 0 .1 0 .2.1v1.4h.5v-1.4l.1-.1c.1 0 .1-.1.2-.1s.2 0 .2.2v1.3h.5v-1.2c-.2.1-.2 0-.2 0zm-5.1 0c-.1-.1-.2-.1-.3-.2-.1 0-.2-.1-.3-.1-.1 0-.1 0-.2-.1s-.1-.2-.1-.3c0-.1.1-.2.2-.2h.2c.2 0 .4 0 .5.1h.1c.1-.1.1-.2.2-.4h-.1c-.2-.1-.3-.1-.5-.1h-.5c-.3.1-.5.2-.5.6 0 .3.1.5.3.7.1.1.2.1.3.1.1 0 .2.1.3.1.1 0 .1.1.2.1s.1.1.1.2c0 .2-.1.3-.2.4h-.3c-.2 0-.4-.1-.6-.2-.1.1-.1.2-.2.3l.1.1c.3.1.5.2.8.2.1 0 .3 0 .4-.1.2-.1.4-.2.4-.5v-.4l-.3-.3zm7-.1c0-.3-.2-.4-.4-.5-.2-.1-.4 0-.6 0-.1 0-.2.1-.3.2.1.1.1.2.2.3h.1c.1 0 .2-.1.3-.1h.3c.1 0 .1.1.1.1v.2c-.1 0-.3 0-.4.1-.1 0-.3.1-.4.2-.1.1-.2.2-.2.3v.2c0 .2.1.4.3.5.1.1.2.1.4 0 .1 0 .3-.1.4-.2 0 .1.1.1.1.2h.3v-1.2c-.1-.2-.1-.2-.2-.3zm-.4 1c-.1.1-.2.1-.3.1h-.1s-.1 0-.1-.1c-.1-.1 0-.2.1-.3 0 0 .1 0 .1-.1.1 0 .2-.1.4-.1-.1.2-.1.3-.1.5 0-.1 0 0 0 0zm2.4-1.2l-.3-.3h-.3c-.2 0-.3.1-.4.2 0-.1-.1-.2-.1-.3h-.3v1.9h.5v-1.4c.1-.1.1-.1.2-.1h.2c.1 0 .2.1.2.1V23h.5v-1.2c-.1 0-.1-.1-.2-.2zm-7.6 1.1c-.1-.5-.3-.9-.4-1.4h-.5v.1c.2.5.3.9.5 1.4.1.2.1.3.2.5v.1l-.2.2h-.3c0 .1 0 .2-.1.3h.4c.2 0 .4-.1.5-.3.1-.1.1-.2.1-.3.2-.6.4-1.3.6-1.9v-.1h-.5c-.1.5-.2 1-.3 1.4zm9.2.1h-.2c-.1 0-.1 0-.1-.1v-1.1h.4v-.3H38v-.5h-.4c0 .2-.1.3-.1.5h-.3v.3h.3v1.2c0 .2.1.3.3.4h.5c.1-.1.1-.2 0-.4zm3.7-.1s-.1 0 0 0c-.2.1-.3.2-.4.2-.1 0-.2-.1-.3-.2 0 0 0-.1-.1-.1v-.5c0-.1 0-.1.1-.2s.1-.1.3-.1c.1 0 .3 0 .4.1.1-.1.1-.2.2-.3-.1-.1-.2-.2-.3-.2h-.3c-.3 0-.6.2-.7.5-.1.1-.1.2-.1.4s0 .4.1.6c.1.2.3.4.5.4h.4c.2 0 .3-.1.5-.2l.1-.1c-.3-.1-.3-.2-.4-.3zm-1.7-.6c0-.1 0-.3-.1-.4-.1-.2-.2-.3-.4-.4-.2-.1-.3-.1-.5 0-.3.1-.4.2-.5.5-.1.3-.1.6 0 .9.1.2.2.4.5.5.2.1.5.1.7 0 .1 0 .2-.1.3-.2-.1-.1-.1-.2-.2-.3-.1 0-.1.1-.2.1-.1.1-.3.1-.4.1-.1 0-.2-.1-.2-.1-.1-.1-.1-.2-.1-.3h1.1v-.4zm-1.1 0c0-.1 0-.3.1-.4.1-.1.3-.1.4 0 .1.1.1.2.1.3h-.6z"></path></svg><svg viewBox="-8 -8 68 29.8" width="68" height="29.8" id="paypal-color" y="2712"><path d="M6.3 0H2.2c-.3 0-.5.2-.5.5L0 10.8c0 .2.1.4.4.4h2c.3 0 .5-.2.5-.5L3.3 8c.1-.3.3-.5.6-.5h1.3c2.7 0 4.2-1.3 4.6-3.8.2-1.1 0-2-.5-2.6C8.6.4 7.6 0 6.3 0zm.4 3.8c-.2 1.5-1.3 1.5-2.4 1.5h-.6l.4-2.7c0-.2.2-.3.3-.3h.3c.7 0 1.4 0 1.8.4.2.2.3.6.2 1.1zm11.6-.1h-2c-.2 0-.3.1-.4.3l.1.6-.1-.2c-.4-.6-1.4-.8-2.3-.8-2.1 0-4 1.6-4.3 3.9-.2 1.1.1 2.2.7 3 .6.7 1.4 1 2.4 1 1.7 0 2.7-1.1 2.7-1.1l-.1.4c-.1.2.1.4.4.4H17c.3 0 .5-.2.5-.5l1.1-6.6c.1-.2-.1-.4-.3-.4zm-2.7 3.8c-.2 1.1-1.1 1.8-2.2 1.8-.6 0-1-.2-1.3-.5-.3-.4-.4-.8-.3-1.4.2-1.1 1.1-1.8 2.2-1.8.5 0 1 .2 1.3.5.3.4.4.9.3 1.4zm13-3.8h-2c-.2 0-.4.1-.5.2l-2.7 4-1.1-3.8c-.1-.2-.3-.4-.5-.4H20c-.2 0-.4.2-.3.5l2.1 6.3-2 2.8c-.2.2 0 .5.3.5h2c.2 0 .4-.1.5-.2L29 4.3c.1-.3-.1-.6-.4-.6z" fill="#253b80"></path><path d="M35.1 0h-4c-.3 0-.5.2-.5.5l-1.7 10.4c-.1.2.1.4.4.4h2.1c.2 0 .4-.1.4-.4l.5-3c.1-.3.3-.5.5-.5H34c2.7 0 4.2-1.3 4.6-3.8.2-1.1 0-2-.5-2.6-.7-.6-1.7-1-3-1zm.4 3.8c-.2 1.5-1.3 1.5-2.4 1.5h-.6l.4-2.7c0-.2.2-.3.4-.3h.3c.7 0 1.4 0 1.8.4.1.2.3.6.1 1.1zm11.7-.1h-2c-.2 0-.3.1-.4.3l-.1.5-.1-.2c-.4-.6-1.4-.8-2.3-.8-2.1 0-4 1.6-4.3 3.9-.2 1.1.1 2.2.7 3 .6.7 1.4 1 2.4 1 1.7 0 2.7-1.1 2.7-1.1l-.1.5c-.1.2.1.4.4.4h1.7c.3 0 .5-.2.5-.5l1.1-6.6c.2-.2 0-.4-.2-.4zm-2.7 3.8c-.2 1.1-1.1 1.8-2.2 1.8-.5 0-1-.2-1.3-.5-.3-.4-.4-.8-.3-1.4.2-1.1 1.1-1.9 2.2-1.9.5 0 1 .2 1.3.5.3.5.4 1 .3 1.5zM49.4.3l-1.7 10.6c0 .2.1.4.4.4h1.7c.3 0 .5-.2.5-.5L52 .4c0-.2-.1-.4-.3-.4h-1.9c-.2 0-.3.1-.4.3z" fill="#179bd7"></path></svg><svg width="34" height="34" viewBox="-8 -8 34 34" id="phone" y="2742"><path fill="#1d2024" fill-rule="evenodd" d="M16.559 11.428a11.917 11.917 0 0 1-3.773-.988 1.577 1.577 0 0 0-2.051.72l-1.066 3.016a15.167 15.167 0 0 1-5.848-5.848l3.016-1.066a1.571 1.571 0 0 0 .721-2.052 11.854 11.854 0 0 1-.986-3.769A1.566 1.566 0 0 0 5.011 0H.956a.958.958 0 0 0-.957.957c0 2.569.561 5.048 1.666 7.369a17.195 17.195 0 0 0 8.011 8.009h.002A16.982 16.982 0 0 0 17.044 18a.958.958 0 0 0 .956-.956v-4.056c0-.815-.619-1.486-1.441-1.56zm-5.161 3.575l.905-2.688c1.215.51 2.486.838 3.784.98v2.763a15.11 15.11 0 0 1-4.689-1.055zM5.692 5.701l-2.694.902a15.035 15.035 0 0 1-1.057-4.689l2.758.005a13.61 13.61 0 0 0 .993 3.782z"></path></svg><svg width="31" height="36" viewBox="-8 -8 31 36" id="pinterest" y="2776"><path fill-rule="evenodd" fill="#FFF" d="M2.349 10.868c.024-.063.272-1.025.289-1.09-.385-.588-.814-2.514-.486-4.078.355-2.295 2.755-3.422 5.02-3.422v-.005c2.835.002 4.959 1.601 4.961 4.355.002 2.155-1.28 5.005-3.468 5.005h-.002c-.781 0-1.77-.359-2.029-.711-.299-.407-.372-.908-.213-1.444.386-1.253.88-2.754.937-3.755.054-.944-.607-1.559-1.465-1.559-.645 0-1.484.379-1.902 1.448-.345.887-.338 1.815.022 2.838.141.4-.621 3.008-.867 3.856-.608 2.109-1.439 4.778-1.261 6.264L2.056 20l.863-1.145c1.192-1.584 2.427-5.677 2.756-6.674.971 1.276 2.994 1.312 3.23 1.312 2.9 0 6.185-2.915 6.091-6.975C14.915 2.959 12.344 0 7.725 0v.004C3.332.004.768 2.381.14 5.384c-.575 2.784.704 4.902 2.209 5.484z"></path></svg><svg viewBox="-8 -8 37 37" width="37" height="37" id="pinterest-footer" y="2812"><path fill="#96a0aa" d="M19.6 5.2c-.9-1.6-2.2-2.9-3.8-3.8C14.2.5 12.4 0 10.5 0S6.8.5 5.2 1.4c-1.5.9-2.9 2.3-3.8 3.8C.5 6.8 0 8.6 0 10.5c0 2.1.5 4 1.7 5.8 1.2 1.7 2.6 3 4.6 3.8 0-1 0-1.8.2-2.5l1.4-5.8c-.2-.5-.4-1-.4-1.6 0-.7.2-1.5.5-1.9.4-.5.9-.8 1.5-.8.5 0 .8.2 1.1.5.3.2.4.6.4 1 0 .3-.1.6-.2 1s-.3.9-.4 1.4c-.2.5-.3 1-.4 1.3-.1.5 0 1 .3 1.5.4.4.8.6 1.4.6 1 0 1.7-.5 2.4-1.6s.9-2.4.9-4c0-1.2-.4-2.2-1.2-2.9S12 5.2 10.6 5.2c-1.6 0-2.8.5-3.8 1.5S5.4 9 5.4 10.4c0 .8.3 1.6.7 2.1.2.2.2.4.2.5 0 .1-.1.2-.1.4-.1.2-.1.4-.1.5-.1.3-.3.4-.5.3-.7-.3-1.3-.8-1.6-1.6-.3-.8-.5-1.6-.5-2.6 0-.6.1-1.3.3-1.8.2-.6.5-1.3.9-1.7.5-.5.9-1.1 1.5-1.6.5-.4 1.3-.7 2.1-1s1.7-.4 2.6-.4c1.3 0 2.5.3 3.5.8s1.8 1.3 2.4 2.2c.5.9.8 1.9.8 2.9 0 1.4-.3 2.6-.7 3.7s-1.2 1.9-2 2.6c-.8.6-1.8.9-2.9.9-.5 0-1.1-.1-1.6-.4-.5-.3-.8-.5-1-.9-.4 1.6-.6 2.6-.7 2.9-.2.6-.5 1.4-1.1 2.3 1 .3 2 .5 3 .5 1.9 0 3.7-.5 5.3-1.4 1.6-.9 2.9-2.2 3.8-3.8.9-1.6 1.4-3.4 1.4-5.3s-.6-3.7-1.5-5.3z"></path></svg><svg viewBox="-8 -8 34 37" width="34" height="37" id="play" y="2849"><path d="M0 10.5V2.1C0 1.2.8.4 1.7.4c.3 0 .6.1.8.2l7.4 4.2L17.2 9c.8.5 1.1 1.5.6 2.3-.1.3-.4.5-.6.6l-7.3 4.2-7.4 4.2c-.8.5-1.8.2-2.3-.6-.1-.2-.2-.5-.2-.8v-8.4z"></path></svg><svg width="27" height="30" viewBox="-8 -8 27 30" id="play-large" y="2886"><path fill="#1d2024" fill-rule="evenodd" d="M10.156 7.94l-8.533 5.556a1.039 1.039 0 0 1-1.081.029 1.116 1.116 0 0 1-.549-.971V1.444c0-.405.209-.776.549-.972a1.025 1.025 0 0 1 1.081.029l8.533 5.556c.313.203.502.559.502.942 0 .382-.189.739-.502.941z"></path></svg><svg width="27" height="30" viewBox="-8 -8 27 30" id="play-large-white" y="2916"><path fill="#fff" fill-rule="evenodd" d="M10.156 7.94l-8.533 5.556a1.039 1.039 0 0 1-1.081.029 1.116 1.116 0 0 1-.549-.971V1.444c0-.405.209-.776.549-.972a1.025 1.025 0 0 1 1.081.029l8.533 5.556c.313.203.502.559.502.942 0 .382-.189.739-.502.941z"></path></svg><svg width="27" height="30" viewBox="-8 -8 27 30" id="play-small" y="2946"><path fill="#1d2024" fill-rule="evenodd" d="M10.156 7.94l-8.533 5.556a1.039 1.039 0 0 1-1.081.029 1.116 1.116 0 0 1-.549-.971V1.444c0-.405.209-.776.549-.972a1.025 1.025 0 0 1 1.081.029l8.533 5.556c.313.203.502.559.502.942 0 .382-.189.739-.502.941z"></path></svg><svg width="27" height="30" viewBox="-8 -8 27 30" id="play-small-white" y="2976"><path fill="#fff" fill-rule="evenodd" d="M10.156 7.94l-8.533 5.556a1.039 1.039 0 0 1-1.081.029 1.116 1.116 0 0 1-.549-.971V1.444c0-.405.209-.776.549-.972a1.025 1.025 0 0 1 1.081.029l8.533 5.556c.313.203.502.559.502.942 0 .382-.189.739-.502.941z"></path></svg><svg width="32" height="32" viewBox="-8 -8 32 32" id="plus" y="3006"><path fill-rule="evenodd" fill="#1d2024" d="M15 9H9v6a1 1 0 0 1-2 0V9H1a1.001 1.001 0 0 1 0-2h6V1a1 1 0 1 1 2 0v6h6a1 1 0 1 1 0 2z"></path></svg><svg width="34" height="34" viewBox="-8 -8 34 34" id="print" y="3038"><path fill="#1d2024" fill-rule="evenodd" d="M15.999 14h-2.001v2a2 2 0 0 1-2 2h-6a2.002 2.002 0 0 1-2.001-2v-2h-2a1.999 1.999 0 0 1-1.998-2V6c0-1.105.894-2 1.998-2h2V2a2 2 0 0 1 2.001-2h6a2 2 0 0 1 2 2v2h2.001c1.102 0 2 .895 2 2v6c0 1.104-.898 2-2 2zM5.998 15a1 1 0 0 0 1 1h4.001a.999.999 0 0 0 .999-1v-2c0-.552-.446-1-.999-1H6.998a1 1 0 0 0-1 1v2zm5.001-13H6.998a1 1 0 1 0 0 2h4.001a.999.999 0 1 0 0-2zm5 5A1 1 0 0 0 15 6H2.999c-.552 0-1.002.448-1.002 1v4c0 .552.45 1 1.002 1h.998a2 2 0 0 1 2.001-2h6a2 2 0 0 1 2 2H15a1 1 0 0 0 .999-1V7zm-2.001 2a1 1 0 1 1 0-2 1 1 0 0 1 0 2z"></path></svg><svg width="32" height="32" viewBox="-8 -8 32 32" id="radiobutton-chosen" y="3072"><path fill="#68717A" fill-rule="evenodd" d="M8-.001a8 8 0 1 1 0 16A8 8 0 0 1 8 0z"></path><path fill="#FFF" fill-rule="evenodd" d="M8 1a7 7 0 1 1 0 14A7 7 0 0 1 8 1z"></path><path fill="#68717A" fill-rule="evenodd" d="M8 3.999a4 4 0 1 1 0 8 4 4 0 0 1 0-8z"></path></svg><svg width="32" height="32" viewBox="-8 -8 32 32" id="radiobutton-chosen-disabled" y="3104"><path fill="#C2C7CC" fill-rule="evenodd" d="M8-.001A8 8 0 1 1 7.999 16 8 8 0 0 1 8 0z"></path><path fill="#FFF" fill-rule="evenodd" d="M8 3.999a4 4 0 1 1 0 8 4 4 0 0 1 0-8z"></path></svg><svg width="32" height="32" viewBox="-8 -8 32 32" id="radiobutton-default" y="3136"><path fill="#C2C7CC" fill-rule="evenodd" d="M8-.001a8 8 0 1 1 0 16A8 8 0 0 1 8 0z"></path><path fill="#FFF" fill-rule="evenodd" d="M8 1a7 7 0 1 1 0 14A7 7 0 0 1 8 1z"></path></svg><svg width="32" height="32" viewBox="-8 -8 32 32" id="radiobutton-disabled" y="3168"><path fill="#C2C7CC" fill-rule="evenodd" d="M8 15.999a8 8 0 1 1 0-16 8 8 0 0 1 0 16zM8 1a7 7 0 1 0 0 14A7 7 0 0 0 8 1z"></path></svg><svg width="32" height="32" viewBox="-8 -8 32 32" id="radiobutton-error" y="3200"><path fill="#D80A00" fill-rule="evenodd" d="M8-.001a8.001 8.001 0 1 1-.002 16.002A8.001 8.001 0 0 1 8-.001z"></path><path fill="#FFF" fill-rule="evenodd" d="M8 1a7 7 0 1 1 0 14A7 7 0 0 1 8 1z"></path></svg><svg width="32" height="32" viewBox="-8 -8 32 32" id="radiobutton-error-chosen" y="3232"><path fill="#D80A00" fill-rule="evenodd" d="M8-.001a8 8 0 1 1 0 16A8 8 0 0 1 8 0z"></path><path fill="#FFF" fill-rule="evenodd" d="M8 1a7 7 0 1 1 0 14A7 7 0 0 1 8 1z"></path><path fill="#68717A" fill-rule="evenodd" d="M8 3.999a4 4 0 1 1 0 8 4 4 0 0 1 0-8z"></path></svg><svg width="32" height="32" viewBox="-8 -8 32 32" id="radiobutton-focus" y="3264"><path fill="#68717A" fill-rule="evenodd" d="M8-.001a8 8 0 1 1 0 16A8 8 0 0 1 8 0z"></path><path fill="#FFF" fill-rule="evenodd" d="M8 1a7 7 0 1 1 0 14A7 7 0 0 1 8 1z"></path></svg><svg width="92" height="28" viewBox="-8 -8 92 28" id="rating" y="3296"><path d="M8 3.8L6 0 4 3.8l-4 .8 2.8 3.1-.5 4.3L6 10.2 9.7 12l-.5-4.3L12 4.6zm16 0L22 0l-2 3.8-4 .8 2.8 3.1-.5 4.3 3.7-1.8 3.7 1.8-.5-4.3L28 4.6zm16 0L38 0l-2 3.8-4 .8 2.8 3.1-.5 4.3 3.7-1.8 3.7 1.8-.5-4.3L44 4.6zm16 0L54 0l-2 3.8-4 .8 2.8 3.1-.5 4.3 3.7-1.8 3.7 1.8-.5-4.3L60 4.6zm20 .8l-4-.8L70 0l-2 3.8-4 .8 2.8 3.1-.5 4.3 3.7-1.8 3.7 1.8-.5-4.3z" fill-rule="evenodd" clip-rule="evenodd" fill="#c9dbde"></path></svg><svg width="32" height="32" viewBox="-8 -8 32 32" id="rating-add" y="3324"><path d="M8 4.3L8.9 6l.4.8.9.2 1.9.4L10.8 9l-.6.7.1.9.2 2-1.6-.8-.9-.5-.9.4-1.6.8.2-2 .1-.9-.6-.6-1.4-1.6 2-.4.9-.2.4-.8.9-1.7M8 0L5.4 5 0 6.1l3.7 4.2-.6 5.7L8 13.6l4.9 2.4-.7-5.7L16 6.1 10.6 5 8 0z" fill="#1d2024"></path></svg><svg width="92" height="28" viewBox="-8 -8 92 28" id="rating-selected" y="3356"><path d="M8 3.8L6 0 4 3.8l-4 .8 2.8 3.1-.5 4.3L6 10.2 9.7 12l-.5-4.3L12 4.6zm16 0L22 0l-2 3.8-4 .8 2.8 3.1-.5 4.3 3.7-1.8 3.7 1.8-.5-4.3L28 4.6zm16 0L38 0l-2 3.8-4 .8 2.8 3.1-.5 4.3 3.7-1.8 3.7 1.8-.5-4.3L44 4.6zm16 0L54 0l-2 3.8-4 .8 2.8 3.1-.5 4.3 3.7-1.8 3.7 1.8-.5-4.3L60 4.6zm20 .8l-4-.8L70 0l-2 3.8-4 .8 2.8 3.1-.5 4.3 3.7-1.8 3.7 1.8-.5-4.3z" fill-rule="evenodd" clip-rule="evenodd" fill="#f9b000"></path></svg><svg viewBox="-8 -8 36 33" width="36" height="33" id="refresh" y="3384"><path fill="#1d2024" d="M15.8 12.1l4-4.6h-2.5c-.6-4.7-4.8-8-9.4-7.4S-.1 4.9.5 9.5s4.8 8 9.4 7.4c1.6-.2 3.2-.9 4.4-1.9L13 13.5c-2.8 2.3-6.9 1.9-9.2-.8s-2-6.9.8-9.2 6.9-1.9 9.2.8c.8.9 1.2 2 1.4 3.2h-2.9l3.5 4.6z"></path></svg><svg id="safekey" viewBox="-8 -8 74 34" width="74" height="34" y="3417"><style>.bkst0{fill:#96a0aa}</style><path d="M5.3 9.4C3.7 8.9 3 8.6 3 7.6c0-.8.6-1.1 1.8-1.1 1-.1 2 .5 2.5 1.5l1.2-.9c-.6-1.2-1.8-2.2-3.8-2.2-2 0-3.5 1.1-3.5 2.9 0 1.9 1.6 2.5 3.5 3 1.7.5 2.3.9 2.3 1.8s-.8 1.3-2.1 1.3-2.2-.6-2.8-1.8l-1.4.7c.8 1.6 2.3 2.6 4.3 2.6 2.4 0 3.8-1.3 3.8-3 0-1.8-1.5-2.5-3.5-3zm13.9-2.2V8h-1.3v1.3h1.3v5.9h1.7V9.3h1.6V8h-1.6v-.7c0-.8.5-.9 1.1-.9.2 0 .4 0 .6.1V5.1c-.1 0-.7-.1-1-.1-1.9.1-2.4 1-2.4 2.2zm-2.8 3.3c0-1.7-.7-2.6-2.6-2.6-1.3 0-2.5.5-3.5 1.3l.8 1.1c.6-.5 1.4-1 2.4-1 .8 0 1.2.3 1.2 1v.2c-3.4.4-4.7 1.4-4.7 3 0 1.2.9 1.9 2.1 1.9 1.1 0 1.9-.3 2.7-1 0 .3.1.6.2.9h1.7c-.1-.4-.2-.9-.2-1.8l-.1-3zm-1.6 2.7c-.6.5-1.3.8-2.1.8-.6 0-1-.3-1-.9 0-.8 1.1-1.3 3.1-1.6v1.7zm12-5.4c-1.5 0-3.5 1-3.5 3.8 0 2.7 1.7 3.8 3.5 3.8 1.2 0 2.3-.4 3-1.3l-.8-.9c-.5.6-1.3.9-2 .8-1.1 0-1.9-.6-1.9-1.9h5v-.4c-.2-2.9-1.7-3.9-3.3-3.9zM25 10.9c.2-1.2.9-1.7 1.7-1.7 1 0 1.6.6 1.7 1.7H25zm14.3-5.8h-1.5l-4.6 5.2V5.1H32v10.1h1.2v-3.4L35 9.9l3.4 5.3h1.4l-4-6.3c0 .1 3.5-3.8 3.5-3.8zm11.8 8.7L49 8h-1.3l2.8 7.3-.2.7c-.3.7-.6 1-1.4 1-.4 0-.7 0-1.1-.1l-.3.9c.4.1.9.2 1.4.2 1.4 0 2-.7 2.5-2l3.1-8h-1.2l-2.2 5.8zm5.4-5c0-.3-.2-.4-.5-.4h-.5v1.2h.3v-.4h.2l.2.4h.3l-.3-.5c.2 0 .3-.1.3-.3zM56 9h-.2v-.3h.2c.1 0 .2 0 .2.1 0 .2-.1.2-.2.2z" class="bkst0"></path><path d="M56 8c-.6 0-1.1.5-1.1 1.1 0 .6.5 1.1 1.1 1.1.6 0 1.1-.5 1.1-1.1 0-.6-.5-1.1-1.1-1.1zm0 2c-.5 0-.9-.4-.9-.9s.4-.9.9-.9.9.4.9.9-.4.9-.9.9zM43.7 7.9c-1.5 0-3.3 1.1-3.3 3.8 0 2.5 1.6 3.8 3.3 3.8 1.2 0 2.3-.5 2.9-1.5l-.7-.6c-.5.8-1.1 1.2-2.2 1.2-1.2 0-2.1-.9-2.2-2.5h5.1v-.3c.1-2.7-1.2-3.9-2.9-3.9zM41.6 11c.2-1.5 1.1-2.2 2-2.2 1.2 0 1.8.9 1.9 2.2h-3.9zM20.2 2.5c.3 0 .6 0 .9-.1v-.6c-.2.1-.5.1-.8.1-.2 0-.9 0-.9-.6s.8-.6.9-.6c.3 0 .5 0 .8.1V.1c-.3-.1-.6-.1-.9-.1-.5 0-1.8.2-1.8 1.3s1.2 1.2 1.8 1.2zm15.2-.1l.6-.7.6.8h1.2l-1.1-1.2 1-1.1h-1.2l-.5.5-.5-.6h-1.2l1 1.1-1.1 1.2h1.2zm14-.5c-.3 0-.7 0-1-.2l-.3.4c.2.1.5.3 1.5.3 1.2.1 1.4-.4 1.4-.7 0-.3-.1-.5-.4-.6-.2 0-.5-.1-.8-.1-.2 0-.5 0-.5-.2s.3-.2.5-.2c.3 0 .5 0 .8.1l.4-.4c-.5-.2-.9-.3-1.4-.3-.8 0-1.4.3-1.3.8s.7.7 1.1.7.5.1.5.2-.3.2-.5.2zm3.2 0c-.3 0-.7 0-1-.2l-.3.4c.2.1.6.3 1.6.3 1.2 0 1.4-.5 1.4-.8 0-.3-.1-.5-.4-.6-.3.1-.5 0-.8 0-.2 0-.5 0-.5-.2s.3-.2.5-.2c.3 0 .5 0 .8.1l.3-.4c-.4-.2-.9-.3-1.3-.3-.8 0-1.4.3-1.4.8s.8.7 1.1.7.5.1.5.2-.2.2-.5.2zm-10-.4l.8.9h1.4l-1-.9c.5-.1.8-.3.8-.7 0-.6-.6-.8-1.1-.8h-1.8v2.4h1l-.1-.9zm0-.9h.6c.2 0 .3.1.3.2 0 .2-.2.3-.3.3h-.6V.6zm5.1 1.3h-1.4v-.5h1.4V1h-1.4V.5h1.4V.1h-2.4v2.4h2.4v-.6zm-21.2-.8l1.4 1.3H29V.1h-1v1.3L26.6.1h-1.1v2.4h1V1.1zm-9.8-1h1v2.4h-1V.1zm7.4 2.3h1L23.9 0h-1.3l-1.2 2.4h1l.2-.5h1.3l.2.5zm-1.3-1l.4-.8.4.8h-.8zm10.9.5h-1.4v-.5h1.4V1h-1.4V.5h1.4V.1h-2.4v2.4h2.4v-.6zM41.1.8c0-.6-.6-.8-1.1-.8h-1.7v2.4h1v-.8h.6c.3 0 .5 0 .8-.1.3-.1.5-.4.4-.7zm-1.3.3h-.5V.5h.5c.2 0 .3.1.3.3 0 .2-.1.3-.3.3zm-32-1l-.5 1.1L6.7.1h-1l-.6 2.3H6l.3-1.3.6 1.3h.6l.6-1.3.3 1.3h1L8.9.1H7.8zM2.5 2h1.3l.2.5h1L3.8.1H2.5L1.3 2.4h1l.2-.4zM3.1.7l.4.8h-.8l.4-.8zm9.3 1.2H11v-.5h1.4V1H11V.5h1.4V.1H10v2.4h2.4v-.6zm1.7-.4l.8.9h1.4l-1-.9c.5-.1.8-.3.8-.7 0-.6-.6-.8-1.1-.8h-1.8v2.4h1l-.1-.9zm0-.9h.6c.2 0 .3.1.3.2 0 .2-.2.3-.3.3h-.6V.6z" class="bkst0"></path></svg><svg width="34" height="34" viewBox="-8 -8 34 34" id="search" y="3451"><path fill-rule="evenodd" fill="#1d2024" d="M17.657 16.249a.999.999 0 1 1-1.414 1.414l-4.949-4.95c-.043-.042-.063-.096-.096-.144-1.173.886-2.616 1.43-4.198 1.43A7 7 0 1 1 14 7c0 1.585-.547 3.031-1.436 4.205.047.033.101.053.143.095l4.95 4.949zM7 1.999A5.001 5.001 0 0 0 7 12 5 5 0 0 0 7 1.999z"></path></svg><svg width="32" height="32" viewBox="-8 -8 32 32" id="show-location" y="3485"><path fill="#666" fill-rule="evenodd" d="M14.473 8.727c-.291 2.982-2.691 5.382-5.746 5.746V16H7.273v-1.527c-2.982-.291-5.382-2.691-5.746-5.746H0V7.273h1.527a6.364 6.364 0 0 1 5.746-5.746V0h1.454v1.527c2.982.291 5.382 2.691 5.746 5.746H16v1.454h-1.527zM8 2.909A5.06 5.06 0 0 0 2.909 8 5.06 5.06 0 0 0 8 13.091 5.06 5.06 0 0 0 13.091 8 5.06 5.06 0 0 0 8 2.909z" opacity=".251"></path><path fill="#666" fill-rule="evenodd" d="M8.014 5.105a2.917 2.917 0 0 0-2.909 2.909c0 1.6 1.309 2.909 2.909 2.909 1.6 0 2.909-1.309 2.909-2.909 0-1.6-1.309-2.909-2.909-2.909z"></path></svg><svg width="32" height="33" viewBox="-8 -8 32 33" id="sort-down" y="3517"><path fill-rule="evenodd" fill="#1d2024" d="M15.674 13.768l-1.929 1.936a1.022 1.022 0 0 1-1.149.208.995.995 0 0 1-.393-.237l-1.911-1.918a1.04 1.04 0 0 1 0-1.463 1.024 1.024 0 0 1 1.453 0l.254.255V9a1 1 0 1 1 1.999 0v3.511l.214-.214a1.028 1.028 0 0 1 1.462 0 1.046 1.046 0 0 1 0 1.471zM7 15.999A1 1 0 0 1 5.998 15V5a1 1 0 0 1 2 0v10a.998.998 0 0 1-.998.999zm-6 0c-.553 0-1-.447-1-.999V1a1 1 0 1 1 2 0v14a1 1 0 0 1-1 .999z"></path></svg><svg width="32" height="32" viewBox="-8 -8 32 32" id="sorting" y="3550"><path fill-rule="evenodd" fill="#1d2024" d="M15.705 3.707a1.034 1.034 0 0 1-1.46 0l-.246-.244V15a.999.999 0 1 1-2 0V3.473l-.235.232a1.04 1.04 0 0 1-1.468 0 1.027 1.027 0 0 1 0-1.46l1.938-1.92c.102-.102.221-.177.348-.227A.976.976 0 0 1 12.999 0a.96.96 0 0 1 .662.272c.04.03.087.046.124.082l1.92 1.902a1.02 1.02 0 0 1 0 1.451zM7 15.999A1 1 0 0 1 5.999 15V7a1 1 0 0 1 1.999 0v8a.998.998 0 0 1-.998.999zm-6 0c-.553 0-1-.447-1-.999v-4a1 1 0 1 1 2 0v4a1 1 0 0 1-1 .999z"></path></svg><svg width="74" height="91" viewBox="-8 -8 74 91" id="store-finder" y="3582"><path fill="#1d2024" fill-rule="evenodd" d="M54.352 44.148c-1.989 4.637-4.809 9.359-8.383 14.037-6.427 8.413-13.673 14.548-16.49 16.795l-.025.02-.025-.02c-2.817-2.237-10.065-8.349-16.492-16.751-3.574-4.673-6.394-9.395-8.384-14.037C2.16 38.607.947 33.073.947 27.746.947 12.447 13.737 0 29.458 0c15.716 0 28.501 12.447 28.501 27.746 0 5.306-1.214 10.824-3.607 16.402zM29.458 3.997c-13.556 0-24.586 10.653-24.586 23.748 0 17.602 14.374 33.048 22.942 40.687l1.638 1.461 1.634-1.466c8.574-7.691 22.958-23.205 22.958-40.682 0-13.095-11.029-23.748-24.586-23.748zm.07 31.349h-.029c-3.535 0-6.424-2.911-6.44-6.489-.01-3.561 2.857-6.465 6.391-6.475h.05a6.38 6.38 0 0 1 4.532 1.878 6.458 6.458 0 0 1 1.907 4.573c.016 3.576-2.86 6.497-6.411 6.513z"></path></svg><svg data-name="Layer 1" viewBox="-8 -8 27 27" width="27" height="27" id="swatches-plus" y="3673"><path fill-rule="evenodd" d="M11 6H6v5H5V6H0V5h5V0h1v5h5v1z"></path></svg><svg width="91" height="91" viewBox="-8 -8 91 91" id="telephone" y="3700"><path fill="#1d2024" fill-rule="evenodd" d="M70.643 50.393l-.003-.001a54.667 54.667 0 0 1-17.334-4.538c-2.299-1.014-4.971-.115-6.135 2.051l-5.517 15.612-2.273-1.272A69.307 69.307 0 0 1 12.745 35.61l-1.272-2.272 15.616-5.517c2.178-1.173 3.08-3.841 2.051-6.134a54.442 54.442 0 0 1-4.529-17.326C24.387 1.874 22.366 0 19.91 0H2.023C.907 0 0 .91 0 2.028c0 11.001 2.4 21.62 7.133 31.561 7.111 14.773 19.123 26.858 33.855 34.067l.986.472C51.743 72.687 62.17 75 72.975 75A2.026 2.026 0 0 0 75 72.977V55.091c0-2.453-1.873-4.473-4.357-4.698zM8.996 27.749A68.535 68.535 0 0 1 4.181 6.387l-.143-2.332 16.454.026.221 1.944a57.781 57.781 0 0 0 4.221 16.071l.925 2.183-16.092 5.39-.771-1.92zm61.956 43.213l-2.33-.145a68.883 68.883 0 0 1-21.358-4.802l-1.926-.77 5.403-16.057 2.175.912a57.78 57.78 0 0 0 16.08 4.163l1.956.213v16.486z"></path></svg><svg width="27" height="24" viewBox="-8 -8 27 24" id="tick" y="3791"><path fill="#FFF" fill-rule="evenodd" d="M9.705 1.755l-4.918 4.92a1.03 1.03 0 0 1-.394.237 1.032 1.032 0 0 1-1.157-.208L.295 3.765a1.038 1.038 0 1 1 1.469-1.469l2.242 2.238L8.248.294a1.03 1.03 0 0 1 1.457 0 1.027 1.027 0 0 1 0 1.461z"></path></svg><svg width="34" height="31" viewBox="-8 -8 34 31" id="twitter" y="3815"><path fill-rule="evenodd" fill="#FFF" d="M18 1.776a7.217 7.217 0 0 1-2.121.595A3.771 3.771 0 0 0 17.502.276a7.243 7.243 0 0 1-2.345.919A3.645 3.645 0 0 0 12.461 0C10.08 0 8.326 2.28 8.865 4.649 5.797 4.492 3.077 2.984 1.257.694.291 2.395.754 4.621 2.398 5.749a3.607 3.607 0 0 1-1.672-.473c-.04 1.755 1.186 3.395 2.96 3.76a3.603 3.603 0 0 1-1.668.064c.469 1.505 1.834 2.599 3.448 2.63A7.291 7.291 0 0 1 0 13.299a10.27 10.27 0 0 0 5.66 1.7c6.854 0 10.727-5.936 10.492-11.263a7.634 7.634 0 0 0 1.844-1.96H18z"></path></svg><svg viewBox="-8 -8 39 34" width="39" height="34" id="twitter-footer" y="3846"><path fill="#96a0aa" d="M22.6 2.1c-.8.4-1.7.6-2.6.7.9-.6 1.7-1.5 2-2.5-.9.5-1.9.9-2.9 1.1-1.7-1.8-4.6-1.9-6.4-.2C11.5 2.3 11 4 11.3 5.6 7.7 5.4 4.3 3.7 2 .8.8 2.9 1.4 5.6 3.4 6.9c-.7 0-1.4-.2-2.1-.6v.1c0 2.2 1.5 4 3.6 4.5-.3 0-.7.1-1.1.1-.3 0-.6 0-.9-.1.6 1.9 2.3 3.1 4.2 3.2C5.5 15.3 3.6 16 1.5 16c-.4 0-.7 0-1.1-.1 2.1 1.3 4.5 2 7 2 8.4 0 12.9-6.9 12.9-12.9v-.6c.9-.6 1.7-1.4 2.3-2.3"></path></svg><svg width="26" height="26" viewBox="-8 -8 26 26" id="unavailable" y="3880"><path fill-rule="evenodd" fill="#FFF" d="M6.389 4.999l3.324 3.324a.983.983 0 1 1-1.391 1.39L4.998 6.389 1.674 9.713a.983.983 0 1 1-1.39-1.39l3.324-3.324L.284 1.675A.983.983 0 1 1 1.674.284l3.324 3.324L8.322.284a.984.984 0 0 1 1.391 1.391L6.389 4.999z"></path></svg><svg id="verified-by-visa" width="59" height="35" viewBox="-8 -8 59 35" y="3906"><style>.bost0{fill:#96a0aa}</style><path class="bost0" d="M17.4 10.1l-2.2 5.8-.2-1.1c-.5-1.4-1.7-3-3.1-3.6l2 7.5h2.3l3.5-8.5c0-.1-2.3-.1-2.3-.1zm1.8 8.5l1.4-8.5h2.2l-1.4 8.5h-2.2zm10.2-8.3c-.6-.2-1.3-.4-2-.4-2.2 0-3.7 1.2-3.7 2.8 0 1.2 1.1 1.9 1.9 2.3.8.4 1.1.7 1.1 1.1 0 .6-.7.8-1.3.8-.7 0-1.4-.1-2.1-.4l-.3-.1-.3 1.9c.8.3 1.6.5 2.5.5 2.3 0 3.8-1.1 3.8-2.9 0-1-.6-1.7-1.9-2.3-.8-.4-1.2-.7-1.2-1.1 0-.4.4-.7 1.3-.7.6 0 1.1.1 1.6.3l.2.1.4-1.9zm5.7-.2h-1.7c-.5 0-.9.1-1.2.7l-3.3 7.8h2.3s.4-1.1.5-1.3h2.8c.1.3.3 1.3.3 1.3h2.1l-1.8-8.5zm-2.7 5.5c.2-.5.9-2.4.9-2.4s.2-.5.3-.8l.1.7.5 2.5h-1.8z"></path><path class="bost0" d="M13.2 10.1H9.7v.1c2.8.7 4.6 2.4 5.3 4.5l-.8-3.9c-.1-.5-.5-.7-1-.7zM3 8.1H1.6L0 .8 1.6.5l1.1 5.7L5.5.6H7L3 8.1zm7.3-2.4H7c-.1 1 .4 1.5 1.2 1.5.7 0 1.3-.3 1.9-.6v1c-.7.3-1.5.5-2.2.5-1.5 0-2.4-.8-2.1-2.7.2-1.7 1.4-2.7 2.7-2.7 1.6 0 2.1 1.2 1.9 2.7 0 .1 0 .2-.1.3zM8.4 3.6c-.5 0-1 .4-1.2 1.3h2.1c-.1-.8-.3-1.3-.9-1.3zM12.5 5L12 8h-1.3l.8-5.2h1.1v1c.4-.6 1-1.1 1.9-1.2V4c-.8 0-1.5.4-2 1zm2 3l.8-5.2h1.3L15.8 8h-1.3zm1.6-6.1c-.3 0-.6-.2-.7-.6v-.2c.1-.4.5-.8.9-.8.4.1.7.4.7.7v.2c-.1.4-.5.7-.9.7zm4.1-.5c-.4 0-.7.2-.8.6l-.1.8h1v1.1h-1.2L18.5 8h-1.3l.6-4.2H17l.2-1.1h.8l.1-.9c.2-1.2 1-1.6 2.1-1.6h.5v1.1c-.2.1-.3.1-.5.1zm0 6.6l.8-5.2h1.3L21.5 8h-1.3zm1.6-6.1c-.3 0-.6-.2-.7-.6v-.2c.1-.4.5-.8.9-.8.3 0 .6.2.7.6v.2c-.1.5-.5.8-.9.8zm5.5 3.8H24c-.1 1 .4 1.5 1.2 1.5.7 0 1.3-.3 1.9-.6v1c-.7.4-1.4.6-2.2.6-1.5 0-2.4-.8-2.1-2.7.3-1.7 1.4-2.7 2.8-2.7 1.6 0 2.1 1.2 1.9 2.7-.1 0-.1.1-.2.2zm-1.9-2.1c-.5 0-1 .4-1.2 1.3h2.1c-.1-.8-.3-1.3-.9-1.3zM31.2 8v-.7c-.4.5-1.1.8-1.7.8-1.1 0-1.8-.8-1.6-2.6.3-1.9 1.5-2.8 2.7-2.8.4 0 .8.1 1.2.2l.4-2.5 1.3-.2L32.3 8h-1.1zm.4-4c-.3-.2-.6-.2-1-.2-.7 0-1.3.5-1.4 1.7-.2 1 .2 1.5.8 1.5.5 0 .9-.3 1.3-.7l.3-2.3zm4.6 4.1c-.5 0-1.1-.1-1.6-.3l.9-5.5 1-.2-.4 2.4c.4-.3.8-.5 1.3-.5.8 0 1.4.6 1.2 1.9-.3 1.5-1.2 2.2-2.4 2.2zm.8-3.2c-.4 0-.7.2-.9.5l-.3 1.8c.2.1.4.1.6.1.6 0 1.1-.4 1.2-1.3.1-.8-.2-1.2-.6-1.1zm3.9 3.3c-.5 1-1 1.3-1.8 1.3h-.4v-.8c.1 0 .3.1.4.1.3 0 .6-.2.7-.4l.2-.3-.8-3.9 1-.1.5 2.8L42 4.1h1l-2.1 4.1z"></path></svg><svg id="visa" viewBox="-8 -8 46 35" width="46" height="35" y="3941"><style>.bpst0{fill:#96a0aa}</style><path d="M25.5 8.1c-.1.3-.3.8-.3.8l-.9 2.3h1.9l-.5-2.4-.2-.7z" class="bpst0"></path><path d="M28 0H2C.9 0 0 .9 0 2v15c0 1.1.9 2 2 2h26c1.1 0 2-.9 2-2V2c0-1.1-.9-2-2-2zM1 5.9v-.2h3.5c.5 0 .9.3 1.1.7l.8 3.7C5.6 8.2 3.8 6.6 1 5.9zm4.3 8.2l-2-7c1.3.9 2.4 2.1 3.1 3.5l.2.9 2.2-5.7h2.4l-3.6 8.3H5.3zm5.5 0l1.4-8.3h2.3l-1.4 8.3h-2.3zm6.2.2c-.9 0-1.7-.2-2.5-.4l.3-1.9.3.1c.7.3 1.4.5 2.1.4.7 0 1.4-.3 1.4-.8 0-.4-.3-.6-1.2-1s-2-1.1-2-2.3c0-1.6 1.6-2.8 3.8-2.8.7 0 1.4.1 2.1.4L21 7.8l-.2-.1c-.5-.2-1.1-.3-1.7-.3-.9 0-1.3.4-1.3.7s.5.7 1.3 1c1.3.6 1.9 1.3 1.9 2.3 0 1.7-1.6 2.9-4 2.9zm9.8-.2s-.2-.9-.2-1.2h-2.9l-.5 1.3h-2.4l3.4-7.6c.2-.5.7-.8 1.2-.7h1.8l1.8 8.3h-2.2v-.1z" class="bpst0"></path></svg><svg viewBox="-8 -8 59 29.2" width="59" height="29.2" id="visa-color" y="3976"><path d="M15.1 13L17.3.2h3.5L18.6 13h-3.5zM31.3.5c-.7-.2-1.8-.5-3.2-.5-3.4 0-5.9 1.7-5.9 4.2 0 1.8 1.7 2.9 3 3.5 1.4.6 1.8 1 1.8 1.6 0 .9-1.1 1.3-2.1 1.3-1.4 0-2.1-.2-3.3-.7l-.5-.2-.5 2.9c.8.4 2.3.7 3.9.7 3.7 0 6-1.7 6.1-4.4 0-1.4-.9-2.6-2.9-3.5-1.2-.6-2-1-2-1.6 0-.5.6-1.1 2-1.1 1.1 0 2 .2 2.6.5l.3.2.7-2.9zm8.9-.3h-2.7c-.8 0-1.5.2-1.8 1.1L30.5 13h3.6s.6-1.6.7-1.9h4.5c.1.5.4 1.9.4 1.9H43L40.2.2zm-4.3 8.3c.3-.7 1.4-3.6 1.4-3.6s.3-.7.5-1.2l.2 1.1s.7 3 .8 3.7h-2.9zM12.2.2L8.8 8.9l-.3-1.7c-.6-2-2.6-4.2-4.8-5.4l3 11.2h3.7L15.9.3h-3.7z" fill="#00589f"></path><path d="M5.7.2H0v.3c4.4 1.1 7.3 3.6 8.5 6.7L7.2 1.3C7 .5 6.4.3 5.7.2z" fill="#f9a51a"></path></svg><svg viewBox="-8 -8 58 38.7" width="58" height="38.7" id="visa-debit-color" y="4006"><path d="M0 .4C.6.1 1.2.2 1.8.2H6c.6 0 1.2.5 1.2 1.1.4 2.1.8 4.2 1.3 6.3-.7-2.3-2.6-4.4-4.8-5.7C2.6 1.3 1.3.8 0 .4z" fill="#f2a827"></path><path d="M12.1.2h3.6c-1.8 4.4-3.5 8.8-5.4 13.1H6.8l-3-11.4C6 3.2 7.9 5.2 8.6 7.7l.3 1.5c1-3 2.1-6 3.2-9zm4.9 0h3.4C19.7 4.6 19 9 18.3 13.3h-3.4C15.6 9 16.4 4.6 17 .2zm6.6.9c2-1.3 4.7-1.3 6.9-.5-.1 1-.3 1.9-.4 2.9-1.2-.6-2.6-.8-3.9-.5-.6.1-1.2.9-.7 1.5 1 1.1 2.7 1.3 3.7 2.5 1.1 1.1 1.1 3 .3 4.3-.8 1.4-2.4 2.1-3.9 2.3-1.7.2-3.5.1-5.2-.6.2-1 .3-2 .5-2.9 1.4.7 3 1.1 4.6.8.5-.2 1.1-.6 1-1.2-.2-.8-1-1.1-1.6-1.4-1.2-.6-2.4-1.3-3-2.6-.5-1.8.3-3.7 1.7-4.6zM39.3.2h-3.1c-.7 0-1.2.7-1.4 1.3-1.6 3.9-3.3 7.9-4.9 11.8h3.5c.3-.7.5-1.3.7-2h4.3c.1.7.3 1.3.4 2H42C41.1 9 40.2 4.6 39.3.2zm-4.2 8.5c.6-1.6 1.2-3.3 1.8-4.9.2 1.6.6 3.3 1 4.9h-2.8z" fill="#0059a0"></path><path d="M27.3 16.8h3l-.2.7h-2.2l-.3 1.8h1.7v.7h-1.8c-.1.7-.2 1.4-.3 2h2.3c0 .1-.1.5-.1.6-1 .1-2 0-3 .1.3-2 .6-3.9.9-5.9zm8.6 0l.8-.1c-.3 2-.6 4-1 5.9h-.8c.4-1.8.7-3.8 1-5.8z" fill="#191516"></path><path d="M37.7 16.8c1.4-.1 2.8 0 4.2 0v.7h-1.8c-.3 1.7-.5 3.5-.9 5.2-.2 0-.6 0-.8.1.3-1.7.5-3.5.8-5.2h-1.8l.3-.8z" fill="#181415"></path><path d="M25.4 17.8c-.8-1.2-2.4-1-3.7-1-.4 2-.6 4-1 5.9 1.1-.1 2.3.2 3.3-.4 1.6-.7 2.2-3 1.4-4.5zm-1.5 3.8c-.7.5-1.5.4-2.3.4.3-1.5.5-3 .8-4.6.9 0 2 0 2.4.9.3 1.2.1 2.6-.9 3.3z" fill="#171415"></path><path d="M33.4 19.7c1-.4 1.4-1.8.5-2.5-.8-.5-1.7-.3-2.5-.3-.3 2-.6 4-.9 5.9 1-.1 2.2.2 3.1-.4.8-.7.8-2.3-.2-2.7zM32 17.5c.6 0 1.6-.1 1.6.8 0 1-1.1 1.1-1.9 1.1.1-.7.2-1.3.3-1.9zm.8 4.4c-.5.2-1 .1-1.6.2.1-.7.3-1.4.3-2.1.6.1 1.4-.1 1.7.5.4.5.1 1.2-.4 1.4z" fill="#191617"></path></svg><svg width="32" height="31" viewBox="-8 -8 32 31" id="wishlist" y="4045"><path fill-rule="evenodd" fill="#1d2024" d="M4.425 2c.624 0 1.22.269 1.677.757l.445.474.95 1.014a.697.697 0 0 0 1.016 0l.95-1.014.437-.467c.462-.492 1.042-.753 1.674-.753.635 0 1.212.259 1.673.75.486.519.752 1.218.75 1.974 0 .751-.269 1.453-.755 1.971l-5.243 5.573-5.235-5.585a2.859 2.859 0 0 1-.761-1.975 2.848 2.848 0 0 1 .753-1.969C3.209 2.266 3.802 2 4.425 2m0-1.999c-1.181 0-2.293.491-3.126 1.381A4.845 4.845 0 0 0 .002 4.724a4.85 4.85 0 0 0 1.303 3.338l6.367 6.794a.452.452 0 0 0 .322.144.443.443 0 0 0 .322-.141l6.383-6.782a4.86 4.86 0 0 0 1.297-3.342c.004-1.263-.454-2.449-1.292-3.342-.838-.894-1.945-1.382-3.13-1.382-1.183 0-2.293.492-3.131 1.385l-.438.467-.445-.474C6.723.496 5.607.001 4.425.001z"></path></svg><svg width="34" height="29" viewBox="-8 -8 34 29" id="youtube" y="4076"><path fill-rule="evenodd" fill="#FFF" d="M17.82 2.804s-.176-1.273-.716-1.835C16.421.234 15.652.23 15.301.187 12.782 0 9.005 0 9.005 0h-.01S5.218 0 2.699.187C2.348.23 1.58.234.895.969.355 1.531.18 2.804.18 2.804S0 4.3 0 5.796v1.402c0 1.496.18 2.992.18 2.992s.175 1.274.715 1.835c.685.736 1.584.713 1.984.79C4.319 12.956 9 13 9 13s3.782-.006 6.301-.194c.351-.042 1.12-.046 1.803-.782.54-.561.716-1.835.716-1.835s.181-1.496.181-2.991V5.796c0-1.496-.181-2.992-.181-2.992zM7.143 8.897l-.002-5.193 4.863 2.606-4.861 2.587z"></path></svg></svg>