<svg id="store-finder" xmlns="http://www.w3.org/2000/svg" width="131.035" height="172.378" viewBox="0 0 131.035 172.378">
  <path id="Path_152" data-name="Path 152" d="M123.692,101.469a153.2,153.2,0,0,1-19.267,32.262,232.335,232.335,0,0,1-37.9,38.6l-.057.046-.057-.046a230.572,230.572,0,0,1-37.9-38.5A152.742,152.742,0,0,1,9.235,101.57C3.735,88.733.947,76.014.947,63.771.947,28.608,30.343,0,66.476,0s65.506,28.608,65.506,63.771c0,12.2-2.79,24.878-8.29,37.7ZM66.476,9.187c-31.157,0-56.508,24.485-56.508,54.582,0,40.456,33.037,75.957,52.729,93.514l3.765,3.358,3.756-3.369c19.706-17.677,52.766-53.334,52.766-93.5,0-30.1-25.349-54.582-56.508-54.582Zm.161,72.052H66.57a14.9,14.9,0,0,1-.113-29.8h.115a14.664,14.664,0,0,1,10.416,4.316,14.918,14.918,0,0,1-10.352,25.48Z" transform="translate(-0.947 0)" fill="#e1e3e4" fill-rule="evenodd"/>
</svg>
